<svg xmlns="http://www.w3.org/2000/svg" xmlns:xlink="http://www.w3.org/1999/xlink" width="1080" zoomAndPan="magnify" viewBox="0 0 810 809.999993" height="1080" preserveAspectRatio="xMidYMid meet" version="1.0"><defs><clipPath id="36f250c239"><path d="M 790 390 L 806.847656 390 L 806.847656 406 L 790 406 Z M 790 390 " clip-rule="nonzero"/></clipPath><clipPath id="9e81020f55"><path d="M 237 440 L 572 440 L 572 750.398438 L 237 750.398438 Z M 237 440 " clip-rule="nonzero"/></clipPath><clipPath id="9058e53b5d"><path d="M 377 59.648438 L 432 59.648438 L 432 114 L 377 114 Z M 377 59.648438 " clip-rule="nonzero"/></clipPath><clipPath id="537bf93dd6"><path d="M 325 563 L 485 563 L 485 608 L 325 608 Z M 325 563 " clip-rule="nonzero"/></clipPath><clipPath id="db5f819f83"><path d="M 462.582031 607.054688 L 347.109375 607.054688 C 335.101562 607.054688 325.394531 597.304688 325.394531 585.328125 C 325.394531 573.316406 335.136719 563.605469 347.109375 563.605469 L 462.582031 563.605469 C 474.589844 563.605469 484.296875 573.351562 484.296875 585.328125 C 484.296875 597.304688 474.554688 607.054688 462.582031 607.054688 Z M 462.582031 607.054688 " clip-rule="nonzero"/></clipPath><radialGradient gradientTransform="matrix(0.999768, 0, 0, 1.000232, 3.493061, -689.136394)" gradientUnits="userSpaceOnUse" r="58.254251" cx="401.445956" id="8a40dd372e" cy="1274.170131" fx="401.445956" fy="1274.170131"><stop stop-opacity="1" stop-color="rgb(71.182251%, 75.956726%, 20.422363%)" offset="0"/><stop stop-opacity="1" stop-color="rgb(70.855713%, 75.741577%, 20.481873%)" offset="0.015625"/><stop stop-opacity="1" stop-color="rgb(70.574951%, 75.558472%, 20.532227%)" offset="0.0273438"/><stop stop-opacity="1" stop-color="rgb(70.294189%, 75.37384%, 20.582581%)" offset="0.0390625"/><stop stop-opacity="1" stop-color="rgb(70.013428%, 75.190735%, 20.632935%)" offset="0.0507812"/><stop stop-opacity="1" stop-color="rgb(69.734192%, 75.006104%, 20.683289%)" offset="0.0625"/><stop stop-opacity="1" stop-color="rgb(69.45343%, 74.822998%, 20.735168%)" offset="0.0742188"/><stop stop-opacity="1" stop-color="rgb(69.172668%, 74.638367%, 20.785522%)" offset="0.0859375"/><stop stop-opacity="1" stop-color="rgb(68.893433%, 74.455261%, 20.835876%)" offset="0.0976562"/><stop stop-opacity="1" stop-color="rgb(68.612671%, 74.27063%, 20.88623%)" offset="0.109375"/><stop stop-opacity="1" stop-color="rgb(68.331909%, 74.087524%, 20.936584%)" offset="0.121094"/><stop stop-opacity="1" stop-color="rgb(68.052673%, 73.902893%, 20.986938%)" offset="0.132812"/><stop stop-opacity="1" stop-color="rgb(67.771912%, 73.719788%, 21.038818%)" offset="0.144531"/><stop stop-opacity="1" stop-color="rgb(67.49115%, 73.535156%, 21.089172%)" offset="0.15625"/><stop stop-opacity="1" stop-color="rgb(67.210388%, 73.352051%, 21.139526%)" offset="0.167969"/><stop stop-opacity="1" stop-color="rgb(66.931152%, 73.167419%, 21.18988%)" offset="0.179688"/><stop stop-opacity="1" stop-color="rgb(66.650391%, 72.984314%, 21.240234%)" offset="0.191406"/><stop stop-opacity="1" stop-color="rgb(66.369629%, 72.799683%, 21.292114%)" offset="0.203125"/><stop stop-opacity="1" stop-color="rgb(66.090393%, 72.616577%, 21.342468%)" offset="0.214844"/><stop stop-opacity="1" stop-color="rgb(65.809631%, 72.431946%, 21.392822%)" offset="0.226562"/><stop stop-opacity="1" stop-color="rgb(65.52887%, 72.24884%, 21.443176%)" offset="0.238281"/><stop stop-opacity="1" stop-color="rgb(65.248108%, 72.064209%, 21.49353%)" offset="0.25"/><stop stop-opacity="1" stop-color="rgb(65.014648%, 71.911621%, 21.536255%)" offset="0.261719"/><stop stop-opacity="1" stop-color="rgb(64.828491%, 71.788025%, 21.569824%)" offset="0.269531"/><stop stop-opacity="1" stop-color="rgb(64.640808%, 71.665955%, 21.603394%)" offset="0.277344"/><stop stop-opacity="1" stop-color="rgb(64.454651%, 71.543884%, 21.638489%)" offset="0.285156"/><stop stop-opacity="1" stop-color="rgb(64.266968%, 71.420288%, 21.672058%)" offset="0.292969"/><stop stop-opacity="1" stop-color="rgb(64.080811%, 71.298218%, 21.705627%)" offset="0.300781"/><stop stop-opacity="1" stop-color="rgb(63.893127%, 71.176147%, 21.739197%)" offset="0.308594"/><stop stop-opacity="1" stop-color="rgb(63.70697%, 71.052551%, 21.772766%)" offset="0.316406"/><stop stop-opacity="1" stop-color="rgb(63.520813%, 70.930481%, 21.806335%)" offset="0.324219"/><stop stop-opacity="1" stop-color="rgb(63.33313%, 70.808411%, 21.839905%)" offset="0.332031"/><stop stop-opacity="1" stop-color="rgb(63.146973%, 70.684814%, 21.873474%)" offset="0.339844"/><stop stop-opacity="1" stop-color="rgb(62.95929%, 70.562744%, 21.908569%)" offset="0.347656"/><stop stop-opacity="1" stop-color="rgb(62.773132%, 70.440674%, 21.942139%)" offset="0.355469"/><stop stop-opacity="1" stop-color="rgb(62.585449%, 70.317078%, 21.975708%)" offset="0.363281"/><stop stop-opacity="1" stop-color="rgb(62.399292%, 70.195007%, 22.009277%)" offset="0.371094"/><stop stop-opacity="1" stop-color="rgb(62.11853%, 70.010376%, 22.059631%)" offset="0.378906"/><stop stop-opacity="1" stop-color="rgb(61.74469%, 69.766235%, 22.12677%)" offset="0.394531"/><stop stop-opacity="1" stop-color="rgb(61.37085%, 69.520569%, 22.195435%)" offset="0.410156"/><stop stop-opacity="1" stop-color="rgb(60.997009%, 69.274902%, 22.262573%)" offset="0.425781"/><stop stop-opacity="1" stop-color="rgb(60.623169%, 69.030762%, 22.329712%)" offset="0.441406"/><stop stop-opacity="1" stop-color="rgb(60.249329%, 68.785095%, 22.396851%)" offset="0.457031"/><stop stop-opacity="1" stop-color="rgb(59.875488%, 68.539429%, 22.463989%)" offset="0.472656"/><stop stop-opacity="1" stop-color="rgb(59.501648%, 68.295288%, 22.532654%)" offset="0.488281"/><stop stop-opacity="1" stop-color="rgb(59.17511%, 68.080139%, 22.590637%)" offset="0.503906"/><stop stop-opacity="1" stop-color="rgb(58.894348%, 67.897034%, 22.640991%)" offset="0.515625"/><stop stop-opacity="1" stop-color="rgb(58.615112%, 67.712402%, 22.691345%)" offset="0.527344"/><stop stop-opacity="1" stop-color="rgb(58.334351%, 67.529297%, 22.743225%)" offset="0.539062"/><stop stop-opacity="1" stop-color="rgb(58.053589%, 67.344666%, 22.793579%)" offset="0.550781"/><stop stop-opacity="1" stop-color="rgb(57.774353%, 67.16156%, 22.843933%)" offset="0.5625"/><stop stop-opacity="1" stop-color="rgb(57.493591%, 66.976929%, 22.894287%)" offset="0.574219"/><stop stop-opacity="1" stop-color="rgb(57.21283%, 66.793823%, 22.944641%)" offset="0.585938"/><stop stop-opacity="1" stop-color="rgb(56.933594%, 66.609192%, 22.996521%)" offset="0.597656"/><stop stop-opacity="1" stop-color="rgb(56.652832%, 66.426086%, 23.046875%)" offset="0.609375"/><stop stop-opacity="1" stop-color="rgb(56.37207%, 66.241455%, 23.097229%)" offset="0.621094"/><stop stop-opacity="1" stop-color="rgb(56.138611%, 66.088867%, 23.139954%)" offset="0.632812"/><stop stop-opacity="1" stop-color="rgb(55.952454%, 65.966797%, 23.173523%)" offset="0.640625"/><stop stop-opacity="1" stop-color="rgb(55.764771%, 65.843201%, 23.207092%)" offset="0.648438"/><stop stop-opacity="1" stop-color="rgb(55.578613%, 65.72113%, 23.240662%)" offset="0.65625"/><stop stop-opacity="1" stop-color="rgb(55.39093%, 65.59906%, 23.274231%)" offset="0.664062"/><stop stop-opacity="1" stop-color="rgb(55.204773%, 65.475464%, 23.3078%)" offset="0.671875"/><stop stop-opacity="1" stop-color="rgb(55.01709%, 65.353394%, 23.342896%)" offset="0.679688"/><stop stop-opacity="1" stop-color="rgb(54.830933%, 65.231323%, 23.376465%)" offset="0.6875"/><stop stop-opacity="1" stop-color="rgb(54.550171%, 65.046692%, 23.426819%)" offset="0.695312"/><stop stop-opacity="1" stop-color="rgb(54.176331%, 64.801025%, 23.493958%)" offset="0.710938"/><stop stop-opacity="1" stop-color="rgb(53.80249%, 64.556885%, 23.561096%)" offset="0.726562"/><stop stop-opacity="1" stop-color="rgb(53.42865%, 64.311218%, 23.629761%)" offset="0.742188"/><stop stop-opacity="1" stop-color="rgb(53.102112%, 64.097595%, 23.687744%)" offset="0.757812"/><stop stop-opacity="1" stop-color="rgb(52.82135%, 63.912964%, 23.738098%)" offset="0.769531"/><stop stop-opacity="1" stop-color="rgb(52.542114%, 63.729858%, 23.788452%)" offset="0.78125"/><stop stop-opacity="1" stop-color="rgb(52.261353%, 63.545227%, 23.838806%)" offset="0.792969"/><stop stop-opacity="1" stop-color="rgb(51.980591%, 63.362122%, 23.890686%)" offset="0.804688"/><stop stop-opacity="1" stop-color="rgb(51.747131%, 63.208008%, 23.933411%)" offset="0.816406"/><stop stop-opacity="1" stop-color="rgb(51.559448%, 63.085938%, 23.96698%)" offset="0.824219"/><stop stop-opacity="1" stop-color="rgb(51.373291%, 62.963867%, 24.000549%)" offset="0.832031"/><stop stop-opacity="1" stop-color="rgb(51.187134%, 62.840271%, 24.034119%)" offset="0.839844"/><stop stop-opacity="1" stop-color="rgb(50.906372%, 62.657166%, 24.084473%)" offset="0.847656"/><stop stop-opacity="1" stop-color="rgb(50.532532%, 62.411499%, 24.151611%)" offset="0.863281"/><stop stop-opacity="1" stop-color="rgb(50.205994%, 62.19635%, 24.211121%)" offset="0.878906"/><stop stop-opacity="1" stop-color="rgb(49.925232%, 62.013245%, 24.261475%)" offset="0.890625"/><stop stop-opacity="1" stop-color="rgb(49.64447%, 61.828613%, 24.311829%)" offset="0.902344"/><stop stop-opacity="1" stop-color="rgb(49.411011%, 61.676025%, 24.354553%)" offset="0.914062"/><stop stop-opacity="1" stop-color="rgb(49.224854%, 61.553955%, 24.388123%)" offset="0.921875"/><stop stop-opacity="1" stop-color="rgb(48.944092%, 61.369324%, 24.438477%)" offset="0.929688"/><stop stop-opacity="1" stop-color="rgb(48.617554%, 61.155701%, 24.497986%)" offset="0.945312"/><stop stop-opacity="1" stop-color="rgb(48.382568%, 61.001587%, 24.54071%)" offset="0.957031"/><stop stop-opacity="1" stop-color="rgb(48.103333%, 60.818481%, 24.591064%)" offset="0.964844"/><stop stop-opacity="1" stop-color="rgb(47.822571%, 60.63385%, 24.641418%)" offset="0.980469"/><stop stop-opacity="1" stop-color="rgb(47.589111%, 60.481262%, 24.682617%)" offset="0.988281"/><stop stop-opacity="1" stop-color="rgb(47.44873%, 60.389709%, 24.708557%)" offset="1"/></radialGradient></defs><path fill="#4a4c4d" d="M 10.820312 401.675781 L 14.210938 399.441406 L 35.75 432.152344 L 32.355469 434.386719 Z M 10.820312 401.675781 " fill-opacity="1" fill-rule="nonzero"/><path fill="#4a4c4d" d="M 23.871094 393.082031 L 27.261719 390.84375 L 48.800781 423.554688 L 45.40625 425.789062 Z M 23.871094 393.082031 " fill-opacity="1" fill-rule="nonzero"/><path fill="#4a4c4d" d="M 36.777344 384.554688 L 40.167969 382.316406 L 61.707031 415.027344 L 58.3125 417.261719 Z M 36.777344 384.554688 " fill-opacity="1" fill-rule="nonzero"/><path fill="#4a4c4d" d="M 50.078125 375.777344 L 53.46875 373.542969 L 75.007812 406.25 L 71.613281 408.484375 Z M 50.078125 375.777344 " fill-opacity="1" fill-rule="nonzero"/><path fill="#4a4c4d" d="M 79.039062 415.460938 L 86.929688 377.097656 L 90.90625 377.917969 L 83.019531 416.28125 Z M 79.039062 415.460938 " fill-opacity="1" fill-rule="nonzero"/><path fill="#717375" d="M 29.84375 419.269531 L 22.835938 423.871094 C 21.828125 424.519531 20.496094 424.230469 19.851562 423.261719 L 14.386719 414.988281 C 13.738281 413.980469 14.027344 412.648438 14.996094 412.003906 L 22.007812 407.398438 C 23.015625 406.75 24.34375 407.039062 24.992188 408.011719 L 30.457031 416.28125 C 31.101562 417.253906 30.851562 418.621094 29.84375 419.269531 Z M 29.84375 419.269531 " fill-opacity="1" fill-rule="nonzero"/><path fill="#717375" d="M 68.921875 393.515625 L 62.199219 397.941406 C 61.121094 398.660156 59.683594 398.335938 58.964844 397.292969 L 52.421875 387.367188 C 51.703125 386.285156 52.027344 384.847656 53.070312 384.128906 L 59.792969 379.703125 C 60.871094 378.984375 62.308594 379.308594 63.027344 380.351562 L 69.570312 390.277344 C 70.253906 391.359375 69.964844 392.832031 68.921875 393.515625 Z M 68.921875 393.515625 " fill-opacity="1" fill-rule="nonzero"/><path fill="#717375" d="M 59.109375 375.605469 L 49.582031 381.898438 C 49.292969 382.078125 48.898438 382.007812 48.683594 381.71875 L 41.132812 370.28125 C 39.695312 368.085938 40.304688 365.101562 42.5 363.625 L 45.089844 361.902344 C 47.28125 360.460938 50.265625 361.074219 51.738281 363.265625 L 59.289062 374.703125 C 59.503906 374.992188 59.394531 375.386719 59.109375 375.605469 Z M 59.109375 375.605469 " fill-opacity="1" fill-rule="nonzero"/><path fill="#717375" d="M 32.648438 393.046875 L 23.121094 399.34375 C 22.835938 399.523438 22.4375 399.449219 22.222656 399.164062 L 13.234375 385.496094 C 11.796875 383.300781 12.410156 380.316406 14.601562 378.839844 L 17.191406 377.113281 C 19.382812 375.675781 22.367188 376.289062 23.839844 378.480469 L 32.828125 392.148438 C 33.007812 392.4375 32.9375 392.832031 32.648438 393.046875 Z M 32.648438 393.046875 " fill-opacity="1" fill-rule="nonzero"/><path fill="#717375" d="M 18.628906 399.449219 L 9.101562 405.746094 C 8.8125 405.925781 8.417969 405.851562 8.203125 405.566406 L 4.285156 399.59375 C 2.847656 397.398438 3.457031 394.414062 5.648438 392.941406 L 8.238281 391.214844 C 10.429688 389.773438 13.414062 390.386719 14.890625 392.582031 L 18.808594 398.515625 C 18.988281 398.875 18.914062 399.269531 18.628906 399.449219 Z M 18.628906 399.449219 " fill-opacity="1" fill-rule="nonzero"/><path fill="#717375" d="M 46.023438 384.234375 L 36.496094 390.53125 C 36.207031 390.710938 35.8125 390.636719 35.597656 390.351562 L 22.1875 369.957031 C 20.75 367.761719 21.359375 364.777344 23.554688 363.304688 L 26.140625 361.578125 C 28.335938 360.136719 31.320312 360.75 32.792969 362.945312 L 46.203125 383.300781 C 46.382812 383.625 46.308594 384.019531 46.023438 384.234375 Z M 46.023438 384.234375 " fill-opacity="1" fill-rule="nonzero"/><path fill="#717375" d="M 92.757812 387.183594 L 81.578125 384.882812 C 81.21875 384.8125 81.003906 384.453125 81.074219 384.128906 L 83.84375 370.675781 C 84.382812 368.085938 86.933594 366.394531 89.523438 366.9375 L 92.578125 367.546875 C 95.167969 368.085938 96.855469 370.640625 96.316406 373.230469 L 93.550781 386.683594 C 93.441406 387.042969 93.117188 387.257812 92.757812 387.183594 Z M 92.757812 387.183594 " fill-opacity="1" fill-rule="nonzero"/><path fill="#717375" d="M 55.730469 402.21875 L 49.1875 406.535156 C 48.070312 407.253906 46.5625 406.96875 45.808594 405.851562 L 38.546875 394.847656 C 37.824219 393.730469 38.113281 392.222656 39.226562 391.464844 L 45.769531 387.148438 C 46.886719 386.429688 48.394531 386.71875 49.148438 387.832031 L 56.414062 398.839844 C 57.132812 399.953125 56.84375 401.464844 55.730469 402.21875 Z M 55.730469 402.21875 " fill-opacity="1" fill-rule="nonzero"/><path fill="#7d7f80" d="M 98.546875 455.847656 L 68.132812 475.878906 C 67.808594 476.097656 67.339844 475.988281 67.125 475.664062 L 64.140625 471.132812 C 63.925781 470.808594 64.035156 470.34375 64.359375 470.125 L 94.773438 450.09375 C 95.09375 449.875 95.5625 449.984375 95.777344 450.308594 L 98.761719 454.839844 C 98.976562 455.199219 98.871094 455.632812 98.546875 455.847656 Z M 98.546875 455.847656 " fill-opacity="1" fill-rule="nonzero"/><path fill="#717375" d="M 43.289062 410.421875 L 36.566406 414.84375 C 35.488281 415.5625 34.050781 415.238281 33.332031 414.195312 L 26.824219 404.269531 C 26.105469 403.191406 26.429688 401.753906 27.472656 401.03125 L 34.195312 396.609375 C 35.273438 395.890625 36.710938 396.214844 37.429688 397.257812 L 43.972656 407.183594 C 44.65625 408.261719 44.332031 409.699219 43.289062 410.421875 Z M 43.289062 410.421875 " fill-opacity="1" fill-rule="nonzero"/><path fill="#a1a3a6" d="M 103.363281 439.445312 L 86.179688 413.371094 C 86.035156 413.191406 86.109375 412.902344 86.289062 412.792969 L 94.554688 407.328125 C 94.988281 407.039062 95.417969 406.679688 95.742188 406.25 C 96.894531 404.703125 96.894531 402.722656 95.886719 401.210938 L 91.609375 394.703125 C 90.78125 393.445312 89.414062 392.652344 87.90625 392.542969 L 79.78125 392.039062 C 78.738281 391.96875 77.730469 392.257812 76.867188 392.832031 L 71.332031 396.464844 C 71.1875 396.574219 71.042969 396.679688 70.902344 396.789062 C 70.863281 396.824219 70.863281 396.824219 70.828125 396.859375 C 70.648438 396.933594 70.503906 397.039062 70.324219 397.148438 L 24.453125 427.359375 C 22.476562 428.65625 21.863281 431.28125 23.121094 433.222656 L 23.15625 433.257812 L 53.894531 472.03125 C 55.152344 473.972656 57.816406 474.441406 59.792969 473.148438 L 102.035156 445.308594 C 104.046875 444.015625 104.65625 441.386719 103.363281 439.445312 Z M 103.363281 439.445312 " fill-opacity="1" fill-rule="nonzero"/><path fill="#686769" d="M 28.800781 440.417969 L 28.226562 439.519531 L 37.035156 433.691406 L 50.660156 436.855469 L 55.476562 433.691406 L 56.054688 434.589844 L 50.839844 438.007812 L 37.25 434.84375 Z M 28.800781 440.417969 " fill-opacity="1" fill-rule="nonzero"/><path fill="#686769" d="M 58.246094 432.359375 C 58.929688 433.402344 58.640625 434.84375 57.597656 435.527344 C 56.554688 436.207031 55.117188 435.921875 54.433594 434.878906 C 53.753906 433.835938 54.039062 432.394531 55.082031 431.714844 C 56.125 430.992188 57.527344 431.316406 58.246094 432.359375 Z M 58.246094 432.359375 " fill-opacity="1" fill-rule="nonzero"/><path fill="#686769" d="M 69.28125 420.238281 C 69.964844 421.28125 69.679688 422.722656 68.636719 423.40625 C 67.59375 424.085938 66.15625 423.800781 65.472656 422.757812 C 64.789062 421.714844 65.078125 420.273438 66.117188 419.59375 C 67.160156 418.910156 68.601562 419.195312 69.28125 420.238281 Z M 69.28125 420.238281 " fill-opacity="1" fill-rule="nonzero"/><path fill="#686769" d="M 56.664062 453.507812 L 43.039062 450.34375 L 38.867188 453.078125 L 38.257812 452.214844 L 42.824219 449.191406 L 56.449219 452.359375 L 61.265625 449.15625 L 61.839844 450.054688 Z M 56.664062 453.507812 " fill-opacity="1" fill-rule="nonzero"/><path fill="#686769" d="M 64.035156 447.828125 C 64.71875 448.871094 64.429688 450.308594 63.386719 450.992188 C 62.34375 451.675781 60.90625 451.386719 60.222656 450.34375 C 59.539062 449.300781 59.828125 447.863281 60.871094 447.179688 C 61.914062 446.496094 63.351562 446.785156 64.035156 447.828125 Z M 64.035156 447.828125 " fill-opacity="1" fill-rule="nonzero"/><path fill="#686769" d="M 73.8125 437.71875 L 73.238281 436.820312 L 78.054688 433.621094 L 80.5 419.878906 L 87.472656 415.277344 L 88.050781 416.175781 L 81.507812 420.527344 L 79.023438 434.265625 Z M 73.8125 437.71875 " fill-opacity="1" fill-rule="nonzero"/><path fill="#686769" d="M 70.902344 438.835938 C 71.582031 439.878906 73.023438 440.164062 74.0625 439.480469 C 75.105469 438.796875 75.394531 437.359375 74.710938 436.316406 C 74.027344 435.273438 72.589844 434.984375 71.546875 435.667969 C 70.503906 436.351562 70.21875 437.753906 70.902344 438.835938 Z M 70.902344 438.835938 " fill-opacity="1" fill-rule="nonzero"/><path fill="#686769" d="M 85.75 449.15625 L 85.171875 448.257812 L 89.992188 445.058594 L 92.433594 431.316406 L 96.355469 428.761719 L 96.929688 429.664062 L 93.40625 431.964844 L 90.960938 445.703125 Z M 85.75 449.15625 " fill-opacity="1" fill-rule="nonzero"/><path fill="#686769" d="M 82.835938 450.273438 C 83.519531 451.316406 84.957031 451.601562 86 450.917969 C 87.042969 450.234375 87.328125 448.796875 86.648438 447.753906 C 85.964844 446.710938 84.527344 446.421875 83.484375 447.105469 C 82.441406 447.789062 82.152344 449.230469 82.835938 450.273438 Z M 82.835938 450.273438 " fill-opacity="1" fill-rule="nonzero"/><path fill="#686769" d="M 67.519531 422.433594 L 60.65625 412.003906 L 75.359375 402.328125 L 71.476562 396.429688 L 72.375 395.816406 L 76.832031 402.617188 L 62.128906 412.328125 L 68.417969 421.859375 Z M 67.519531 422.433594 " fill-opacity="1" fill-rule="nonzero"/><path fill="#7d7f80" d="M 134.09375 545.691406 L 212.871094 541.125 L 214.8125 574.625 L 136.035156 579.191406 Z M 134.09375 545.691406 " fill-opacity="1" fill-rule="nonzero"/><path fill="#9b9e9f" d="M 304.6875 569.898438 C 304.6875 571.746094 304.597656 573.589844 304.414062 575.429688 C 304.234375 577.269531 303.964844 579.097656 303.605469 580.910156 C 303.242188 582.722656 302.792969 584.511719 302.257812 586.28125 C 301.722656 588.050781 301.101562 589.789062 300.394531 591.496094 C 299.6875 593.203125 298.898438 594.871094 298.027344 596.5 C 297.15625 598.132812 296.207031 599.714844 295.179688 601.25 C 294.15625 602.789062 293.054688 604.269531 291.882812 605.699219 C 290.710938 607.128906 289.472656 608.496094 288.167969 609.804688 C 286.859375 611.109375 285.492188 612.351562 284.066406 613.523438 C 282.636719 614.695312 281.15625 615.792969 279.617188 616.820312 C 278.082031 617.847656 276.5 618.796875 274.871094 619.667969 C 273.242188 620.539062 271.574219 621.328125 269.867188 622.035156 C 268.160156 622.742188 266.421875 623.367188 264.65625 623.902344 C 262.886719 624.4375 261.097656 624.886719 259.285156 625.246094 C 257.472656 625.609375 255.648438 625.878906 253.808594 626.058594 C 251.972656 626.242188 250.128906 626.332031 248.28125 626.332031 C 246.433594 626.332031 244.589844 626.242188 242.753906 626.058594 C 240.914062 625.878906 239.089844 625.609375 237.277344 625.246094 C 235.464844 624.886719 233.675781 624.4375 231.90625 623.902344 C 230.140625 623.367188 228.402344 622.742188 226.695312 622.035156 C 224.988281 621.328125 223.320312 620.539062 221.691406 619.667969 C 220.0625 618.796875 218.480469 617.847656 216.941406 616.820312 C 215.40625 615.792969 213.925781 614.695312 212.496094 613.523438 C 211.070312 612.351562 209.703125 611.109375 208.394531 609.804688 C 207.089844 608.496094 205.851562 607.128906 204.679688 605.699219 C 203.507812 604.269531 202.40625 602.789062 201.378906 601.25 C 200.355469 599.714844 199.40625 598.132812 198.535156 596.5 C 197.664062 594.871094 196.875 593.203125 196.167969 591.496094 C 195.460938 589.789062 194.839844 588.050781 194.304688 586.28125 C 193.765625 584.511719 193.320312 582.722656 192.957031 580.910156 C 192.597656 579.097656 192.328125 577.269531 192.144531 575.429688 C 191.964844 573.589844 191.875 571.746094 191.875 569.898438 C 191.875 568.050781 191.964844 566.207031 192.144531 564.367188 C 192.328125 562.527344 192.597656 560.703125 192.957031 558.890625 C 193.320312 557.078125 193.765625 555.285156 194.304688 553.519531 C 194.839844 551.75 195.460938 550.011719 196.167969 548.304688 C 196.875 546.597656 197.664062 544.925781 198.535156 543.296875 C 199.40625 541.667969 200.355469 540.082031 201.378906 538.546875 C 202.40625 537.011719 203.507812 535.527344 204.679688 534.097656 C 205.851562 532.671875 207.089844 531.300781 208.394531 529.996094 C 209.703125 528.6875 211.070312 527.449219 212.496094 526.277344 C 213.925781 525.105469 215.40625 524.003906 216.941406 522.976562 C 218.480469 521.949219 220.0625 521 221.691406 520.128906 C 223.320312 519.257812 224.988281 518.46875 226.695312 517.761719 C 228.402344 517.054688 230.140625 516.433594 231.90625 515.898438 C 233.675781 515.359375 235.464844 514.910156 237.277344 514.550781 C 239.089844 514.191406 240.914062 513.917969 242.753906 513.738281 C 244.589844 513.558594 246.433594 513.464844 248.28125 513.464844 C 250.128906 513.464844 251.972656 513.558594 253.808594 513.738281 C 255.648438 513.917969 257.472656 514.191406 259.285156 514.550781 C 261.097656 514.910156 262.886719 515.359375 264.65625 515.898438 C 266.421875 516.433594 268.160156 517.054688 269.867188 517.761719 C 271.574219 518.46875 273.242188 519.257812 274.871094 520.128906 C 276.5 521 278.082031 521.949219 279.617188 522.976562 C 281.15625 524.003906 282.636719 525.105469 284.066406 526.277344 C 285.492188 527.449219 286.859375 528.6875 288.167969 529.996094 C 289.472656 531.300781 290.710938 532.671875 291.882812 534.097656 C 293.054688 535.527344 294.15625 537.011719 295.179688 538.546875 C 296.207031 540.082031 297.15625 541.667969 298.027344 543.296875 C 298.898438 544.925781 299.6875 546.597656 300.394531 548.304688 C 301.101562 550.011719 301.722656 551.75 302.257812 553.519531 C 302.792969 555.285156 303.242188 557.078125 303.605469 558.890625 C 303.964844 560.703125 304.234375 562.527344 304.414062 564.367188 C 304.597656 566.207031 304.6875 568.050781 304.6875 569.898438 Z M 304.6875 569.898438 " fill-opacity="1" fill-rule="nonzero"/><path fill="#0080c7" d="M 186.984375 547.492188 C 183.496094 558.964844 174.582031 571.410156 161.207031 580.148438 C 147.90625 588.996094 132.953125 592.269531 121.050781 590.976562 C 109.042969 589.71875 100.054688 583.820312 96.570312 575.292969 C 95.886719 573.675781 95.238281 572.09375 94.554688 570.476562 C 94.304688 569.863281 94.050781 569.289062 93.800781 568.675781 C 93.730469 568.53125 93.691406 568.390625 93.621094 568.246094 C 93.371094 567.667969 93.117188 567.058594 92.867188 566.445312 C 89.164062 557.597656 85.496094 548.785156 81.828125 539.9375 C 81.578125 539.328125 81.328125 538.75 81.074219 538.140625 C 81.003906 537.996094 80.964844 537.851562 80.894531 537.707031 C 80.644531 537.097656 80.390625 536.523438 80.140625 535.910156 C 76.542969 527.3125 72.949219 518.71875 69.390625 510.121094 C 69.140625 509.511719 68.886719 508.933594 68.636719 508.324219 C 68.5625 508.179688 68.527344 508.035156 68.457031 507.890625 C 68.203125 507.28125 67.953125 506.703125 67.699219 506.09375 C 67.664062 505.984375 67.59375 505.839844 67.558594 505.734375 C 63.996094 497.136719 64.644531 487.964844 67.414062 479.980469 C 70.253906 471.960938 75.25 465.089844 82.40625 460.378906 C 88.730469 456.207031 95.992188 454.265625 103.472656 454.265625 C 104.40625 454.265625 105.339844 454.300781 106.3125 454.371094 C 114.722656 454.984375 123.386719 458.042969 129.894531 464.695312 C 130.46875 465.304688 131.046875 465.882812 131.621094 466.492188 C 132.050781 466.960938 132.484375 467.394531 132.914062 467.859375 C 133.023438 467.96875 133.132812 468.113281 133.273438 468.21875 C 133.707031 468.6875 134.136719 469.117188 134.570312 469.585938 C 141.039062 476.242188 147.476562 482.894531 153.945312 489.585938 C 154.378906 490.015625 154.808594 490.484375 155.242188 490.914062 C 155.347656 491.023438 155.457031 491.167969 155.601562 491.273438 C 156.03125 491.707031 156.464844 492.175781 156.894531 492.605469 C 163.617188 499.546875 170.339844 506.488281 177.0625 513.394531 C 177.492188 513.828125 177.925781 514.292969 178.355469 514.726562 C 178.464844 514.832031 178.609375 514.976562 178.714844 515.085938 C 179.148438 515.515625 179.578125 515.984375 180.011719 516.414062 C 180.765625 517.171875 181.484375 517.925781 182.238281 518.71875 C 188.710938 525.371094 190.542969 535.945312 186.984375 547.492188 Z M 186.984375 547.492188 " fill-opacity="1" fill-rule="nonzero"/><path fill="#276fb3" d="M 133.3125 468.253906 C 113.71875 486.09375 77.945312 503.933594 68.671875 508.394531 C 68.601562 508.25 68.5625 508.109375 68.492188 507.964844 C 68.238281 507.351562 67.988281 506.777344 67.738281 506.164062 C 77.085938 501.632812 112.386719 484.007812 131.621094 466.492188 C 132.050781 466.960938 132.484375 467.390625 132.914062 467.859375 C 133.058594 468.003906 133.167969 468.113281 133.3125 468.253906 Z M 133.3125 468.253906 " fill-opacity="1" fill-rule="nonzero"/><path fill="#276fb3" d="M 155.636719 491.273438 C 134.171875 510.839844 96.714844 530.40625 81.109375 538.140625 C 81.039062 537.996094 81.003906 537.851562 80.929688 537.707031 C 80.679688 537.097656 80.425781 536.523438 80.175781 535.910156 C 95.777344 528.175781 132.808594 508.789062 153.980469 489.511719 C 154.414062 489.945312 154.84375 490.410156 155.277344 490.84375 C 155.382812 491.058594 155.492188 491.167969 155.636719 491.273438 Z M 155.636719 491.273438 " fill-opacity="1" fill-rule="nonzero"/><path fill="#276fb3" d="M 178.753906 515.15625 C 154.484375 538.25 107.820312 561.878906 93.800781 568.675781 C 93.730469 568.53125 93.691406 568.390625 93.621094 568.246094 C 93.371094 567.667969 93.117188 567.058594 92.867188 566.445312 C 106.921875 559.613281 153.121094 536.234375 177.0625 513.429688 C 177.492188 513.863281 177.925781 514.328125 178.355469 514.761719 C 178.5 514.90625 178.609375 515.011719 178.753906 515.15625 Z M 178.753906 515.15625 " fill-opacity="1" fill-rule="nonzero"/><path fill="#42c6f3" d="M 134.605469 469.585938 C 114.976562 487.640625 78.449219 505.804688 69.425781 510.15625 C 69.175781 509.546875 68.921875 508.972656 68.671875 508.359375 C 68.601562 508.214844 68.5625 508.070312 68.492188 507.925781 C 77.625 503.539062 113.683594 485.59375 132.953125 467.824219 C 133.058594 467.933594 133.167969 468.074219 133.3125 468.183594 C 133.742188 468.6875 134.171875 469.15625 134.605469 469.585938 Z M 134.605469 469.585938 " fill-opacity="0.31" fill-rule="nonzero"/><path fill="#42c6f3" d="M 156.929688 492.640625 C 135.433594 512.386719 97.433594 532.207031 81.828125 539.972656 C 81.578125 539.363281 81.328125 538.789062 81.074219 538.175781 C 81.003906 538.03125 80.964844 537.886719 80.894531 537.746094 C 96.460938 530.011719 134.066406 510.375 155.242188 490.914062 C 155.347656 491.023438 155.457031 491.167969 155.601562 491.273438 C 156.066406 491.742188 156.5 492.175781 156.929688 492.640625 Z M 156.929688 492.640625 " fill-opacity="0.31" fill-rule="nonzero"/><path fill="#42c6f3" d="M 180.046875 516.488281 C 155.78125 539.792969 108.398438 563.714844 94.554688 570.4375 C 94.304688 569.828125 94.050781 569.25 93.800781 568.640625 C 93.730469 568.496094 93.691406 568.351562 93.621094 568.207031 C 107.5 561.445312 154.449219 537.746094 178.355469 514.726562 C 178.464844 514.832031 178.609375 514.976562 178.714844 515.085938 C 179.183594 515.589844 179.613281 516.054688 180.046875 516.488281 Z M 180.046875 516.488281 " fill-opacity="0.31" fill-rule="nonzero"/><path fill="#ffffff" d="M 255.832031 516.703125 C 255.832031 516.703125 211.359375 517.675781 199.640625 553.210938 C 199.640625 553.210938 217.398438 526.414062 258.167969 523.679688 Z M 255.832031 516.703125 " fill-opacity="0.16" fill-rule="nonzero"/><path fill="#4a4c4d" d="M 773.949219 432.144531 L 795.484375 399.433594 L 798.878906 401.667969 L 777.339844 434.378906 Z M 773.949219 432.144531 " fill-opacity="1" fill-rule="nonzero"/><path fill="#4a4c4d" d="M 760.898438 423.550781 L 782.433594 390.84375 L 785.828125 393.078125 L 764.289062 425.789062 Z M 760.898438 423.550781 " fill-opacity="1" fill-rule="nonzero"/><path fill="#4a4c4d" d="M 747.941406 415.023438 L 769.476562 382.3125 L 772.871094 384.550781 L 751.332031 417.257812 Z M 747.941406 415.023438 " fill-opacity="1" fill-rule="nonzero"/><path fill="#4a4c4d" d="M 734.691406 406.28125 L 756.230469 373.570312 L 759.621094 375.808594 L 738.085938 408.515625 Z M 734.691406 406.28125 " fill-opacity="1" fill-rule="nonzero"/><path fill="#4a4c4d" d="M 718.792969 377.894531 L 722.773438 377.074219 L 730.65625 415.441406 L 726.679688 416.257812 Z M 718.792969 377.894531 " fill-opacity="1" fill-rule="nonzero"/><path fill="#717375" d="M 779.847656 419.269531 L 786.855469 423.871094 C 787.863281 424.519531 789.195312 424.230469 789.839844 423.261719 L 795.304688 414.988281 C 795.953125 413.980469 795.664062 412.648438 794.695312 412.003906 L 787.683594 407.398438 C 786.675781 406.75 785.347656 407.039062 784.699219 408.011719 L 779.234375 416.28125 C 778.554688 417.253906 778.839844 418.621094 779.847656 419.269531 Z M 779.847656 419.269531 " fill-opacity="1" fill-rule="nonzero"/><path fill="#717375" d="M 740.769531 393.515625 L 747.492188 397.941406 C 748.570312 398.660156 750.007812 398.335938 750.726562 397.292969 L 757.269531 387.367188 C 757.988281 386.285156 757.664062 384.847656 756.621094 384.128906 L 749.898438 379.703125 C 748.820312 378.984375 747.382812 379.308594 746.664062 380.351562 L 740.121094 390.277344 C 739.402344 391.359375 739.691406 392.832031 740.769531 393.515625 Z M 740.769531 393.515625 " fill-opacity="1" fill-rule="nonzero"/><path fill="#717375" d="M 750.582031 375.605469 L 760.109375 381.898438 C 760.398438 382.078125 760.792969 382.007812 761.007812 381.71875 L 768.558594 370.28125 C 769.996094 368.085938 769.386719 365.101562 767.191406 363.625 L 764.605469 361.902344 C 762.410156 360.460938 759.425781 361.074219 757.953125 363.265625 L 750.402344 374.703125 C 750.1875 374.992188 750.257812 375.386719 750.582031 375.605469 Z M 750.582031 375.605469 " fill-opacity="1" fill-rule="nonzero"/><path fill="#717375" d="M 777.042969 393.046875 L 786.570312 399.34375 C 786.855469 399.523438 787.253906 399.449219 787.46875 399.164062 L 796.457031 385.496094 C 797.894531 383.300781 797.28125 380.316406 795.089844 378.839844 L 792.5 377.113281 C 790.308594 375.675781 787.324219 376.289062 785.851562 378.480469 L 776.863281 392.148438 C 776.648438 392.4375 776.753906 392.832031 777.042969 393.046875 Z M 777.042969 393.046875 " fill-opacity="1" fill-rule="nonzero"/><g clip-path="url(#36f250c239)"><path fill="#717375" d="M 791.0625 399.449219 L 800.589844 405.746094 C 800.878906 405.925781 801.273438 405.851562 801.488281 405.566406 L 805.40625 399.628906 C 806.847656 397.4375 806.234375 394.449219 804.042969 392.976562 L 801.453125 391.25 C 799.261719 389.8125 796.277344 390.421875 794.800781 392.617188 L 790.882812 398.550781 C 790.703125 398.875 790.777344 399.269531 791.0625 399.449219 Z M 791.0625 399.449219 " fill-opacity="1" fill-rule="nonzero"/></g><path fill="#717375" d="M 763.667969 384.234375 L 773.195312 390.53125 C 773.484375 390.710938 773.878906 390.636719 774.09375 390.351562 L 787.503906 369.992188 C 788.941406 367.800781 788.332031 364.8125 786.136719 363.339844 L 783.550781 361.613281 C 781.355469 360.175781 778.375 360.785156 776.898438 362.980469 L 763.488281 383.335938 C 763.308594 383.625 763.382812 384.019531 763.667969 384.234375 Z M 763.667969 384.234375 " fill-opacity="1" fill-rule="nonzero"/><path fill="#717375" d="M 716.933594 387.183594 L 728.113281 384.882812 C 728.472656 384.8125 728.6875 384.453125 728.617188 384.128906 L 725.847656 370.675781 C 725.308594 368.085938 722.757812 366.394531 720.167969 366.9375 L 717.113281 367.546875 C 714.523438 368.085938 712.835938 370.640625 713.375 373.230469 L 716.140625 386.683594 C 716.25 387.042969 716.574219 387.257812 716.933594 387.183594 Z M 716.933594 387.183594 " fill-opacity="1" fill-rule="nonzero"/><path fill="#717375" d="M 753.960938 402.21875 L 760.503906 406.535156 C 761.621094 407.253906 763.128906 406.96875 763.886719 405.851562 L 771.148438 394.847656 C 771.867188 393.730469 771.578125 392.222656 770.464844 391.464844 L 763.921875 387.148438 C 762.804688 386.429688 761.296875 386.71875 760.542969 387.832031 L 753.28125 398.839844 C 752.523438 399.953125 752.847656 401.464844 753.960938 402.21875 Z M 753.960938 402.21875 " fill-opacity="1" fill-rule="nonzero"/><path fill="#7d7f80" d="M 711.144531 455.847656 L 741.558594 475.878906 C 741.882812 476.097656 742.351562 475.988281 742.566406 475.664062 L 745.550781 471.132812 C 745.765625 470.808594 745.65625 470.34375 745.335938 470.125 L 714.921875 450.09375 C 714.597656 449.875 714.128906 449.984375 713.914062 450.308594 L 710.929688 454.839844 C 710.714844 455.199219 710.785156 455.632812 711.144531 455.847656 Z M 711.144531 455.847656 " fill-opacity="1" fill-rule="nonzero"/><path fill="#717375" d="M 766.402344 410.421875 L 773.125 414.84375 C 774.203125 415.5625 775.640625 415.238281 776.359375 414.195312 L 782.902344 404.269531 C 783.621094 403.191406 783.296875 401.753906 782.253906 401.03125 L 775.53125 396.609375 C 774.453125 395.890625 773.015625 396.214844 772.296875 397.257812 L 765.753906 407.183594 C 765.035156 408.261719 765.324219 409.699219 766.402344 410.421875 Z M 766.402344 410.421875 " fill-opacity="1" fill-rule="nonzero"/><path fill="#a1a3a6" d="M 706.292969 439.445312 L 723.476562 413.371094 C 723.621094 413.191406 723.546875 412.902344 723.367188 412.792969 L 715.101562 407.328125 C 714.667969 407.039062 714.238281 406.679688 713.914062 406.25 C 712.761719 404.703125 712.761719 402.722656 713.769531 401.210938 L 718.046875 394.703125 C 718.875 393.445312 720.242188 392.652344 721.75 392.542969 L 729.875 392.042969 C 730.917969 391.96875 731.925781 392.257812 732.789062 392.832031 L 738.324219 396.464844 C 738.46875 396.574219 738.613281 396.679688 738.753906 396.789062 C 738.792969 396.824219 738.792969 396.824219 738.828125 396.859375 C 739.007812 396.933594 739.152344 397.039062 739.332031 397.148438 L 785.203125 427.359375 C 787.179688 428.65625 787.792969 431.28125 786.535156 433.222656 L 786.496094 433.257812 L 755.761719 472.03125 C 754.5 473.972656 751.839844 474.441406 749.863281 473.148438 L 707.621094 445.308594 C 705.609375 444.015625 705.035156 441.386719 706.292969 439.445312 Z M 706.292969 439.445312 " fill-opacity="1" fill-rule="nonzero"/><path fill="#686769" d="M 780.890625 440.417969 L 781.464844 439.519531 L 772.65625 433.691406 L 759.03125 436.855469 L 754.214844 433.691406 L 753.640625 434.589844 L 758.816406 438.007812 L 772.441406 434.84375 Z M 780.890625 440.417969 " fill-opacity="1" fill-rule="nonzero"/><path fill="#686769" d="M 751.445312 432.359375 C 750.761719 433.402344 751.050781 434.84375 752.09375 435.527344 C 753.136719 436.207031 754.574219 435.921875 755.257812 434.878906 C 755.941406 433.835938 755.652344 432.394531 754.609375 431.714844 C 753.566406 430.992188 752.128906 431.316406 751.445312 432.359375 Z M 751.445312 432.359375 " fill-opacity="1" fill-rule="nonzero"/><path fill="#686769" d="M 740.375 420.238281 C 739.691406 421.28125 739.976562 422.722656 741.019531 423.40625 C 742.0625 424.085938 743.5 423.800781 744.183594 422.757812 C 744.867188 421.714844 744.578125 420.273438 743.535156 419.59375 C 742.496094 418.910156 741.09375 419.195312 740.375 420.238281 Z M 740.375 420.238281 " fill-opacity="1" fill-rule="nonzero"/><path fill="#686769" d="M 753.027344 453.507812 L 766.652344 450.34375 L 770.824219 453.078125 L 771.433594 452.214844 L 766.832031 449.191406 L 753.242188 452.359375 L 748.425781 449.15625 L 747.816406 450.054688 Z M 753.027344 453.507812 " fill-opacity="1" fill-rule="nonzero"/><path fill="#686769" d="M 745.65625 447.828125 C 744.976562 448.871094 745.261719 450.308594 746.304688 450.992188 C 747.347656 451.675781 748.785156 451.386719 749.46875 450.34375 C 750.152344 449.300781 749.863281 447.863281 748.820312 447.179688 C 747.742188 446.496094 746.339844 446.785156 745.65625 447.828125 Z M 745.65625 447.828125 " fill-opacity="1" fill-rule="nonzero"/><path fill="#686769" d="M 735.84375 437.71875 L 736.453125 436.820312 L 731.636719 433.621094 L 729.15625 419.878906 L 722.21875 415.277344 L 721.605469 416.175781 L 728.1875 420.527344 L 730.667969 434.265625 Z M 735.84375 437.71875 " fill-opacity="1" fill-rule="nonzero"/><path fill="#686769" d="M 738.753906 438.835938 C 738.074219 439.878906 736.632812 440.164062 735.589844 439.480469 C 734.550781 438.796875 734.261719 437.359375 734.945312 436.316406 C 735.628906 435.273438 737.066406 434.984375 738.109375 435.667969 C 739.1875 436.351562 739.472656 437.753906 738.753906 438.835938 Z M 738.753906 438.835938 " fill-opacity="1" fill-rule="nonzero"/><path fill="#686769" d="M 723.945312 449.15625 L 724.519531 448.257812 L 719.703125 445.058594 L 717.257812 431.316406 L 713.339844 428.761719 L 712.761719 429.664062 L 716.25 431.964844 L 718.730469 445.703125 Z M 723.945312 449.15625 " fill-opacity="1" fill-rule="nonzero"/><path fill="#686769" d="M 726.855469 450.273438 C 726.171875 451.316406 724.734375 451.601562 723.691406 450.917969 C 722.648438 450.234375 722.363281 448.796875 723.046875 447.753906 C 723.726562 446.710938 725.167969 446.421875 726.207031 447.105469 C 727.25 447.789062 727.539062 449.230469 726.855469 450.273438 Z M 726.855469 450.273438 " fill-opacity="1" fill-rule="nonzero"/><path fill="#686769" d="M 742.171875 422.433594 L 749.039062 412.003906 L 734.332031 402.328125 L 738.214844 396.429688 L 737.316406 395.816406 L 732.824219 402.617188 L 747.527344 412.328125 L 741.273438 421.859375 Z M 742.171875 422.433594 " fill-opacity="1" fill-rule="nonzero"/><path fill="#7d7f80" d="M 594.804688 574.714844 L 596.746094 541.214844 L 675.523438 545.78125 L 673.582031 579.28125 Z M 594.804688 574.714844 " fill-opacity="1" fill-rule="nonzero"/><path fill="#9b9e9f" d="M 617.78125 569.898438 C 617.78125 571.746094 617.691406 573.589844 617.511719 575.429688 C 617.328125 577.269531 617.058594 579.097656 616.699219 580.910156 C 616.335938 582.722656 615.890625 584.511719 615.351562 586.28125 C 614.816406 588.050781 614.195312 589.789062 613.488281 591.496094 C 612.78125 593.203125 611.992188 594.871094 611.121094 596.5 C 610.25 598.132812 609.300781 599.714844 608.273438 601.25 C 607.25 602.789062 606.148438 604.269531 604.976562 605.699219 C 603.804688 607.128906 602.566406 608.496094 601.261719 609.804688 C 599.953125 611.109375 598.585938 612.351562 597.160156 613.523438 C 595.730469 614.695312 594.25 615.792969 592.710938 616.820312 C 591.175781 617.847656 589.59375 618.796875 587.964844 619.667969 C 586.335938 620.539062 584.667969 621.328125 582.960938 622.035156 C 581.253906 622.742188 579.515625 623.367188 577.75 623.902344 C 575.980469 624.4375 574.191406 624.886719 572.378906 625.246094 C 570.566406 625.609375 568.742188 625.878906 566.902344 626.058594 C 565.066406 626.242188 563.222656 626.332031 561.375 626.332031 C 559.527344 626.332031 557.683594 626.242188 555.847656 626.058594 C 554.007812 625.878906 552.183594 625.609375 550.371094 625.246094 C 548.558594 624.886719 546.769531 624.4375 545 623.902344 C 543.234375 623.367188 541.496094 622.742188 539.789062 622.035156 C 538.082031 621.328125 536.414062 620.539062 534.785156 619.667969 C 533.15625 618.796875 531.574219 617.847656 530.039062 616.820312 C 528.5 615.792969 527.019531 614.695312 525.589844 613.523438 C 524.164062 612.351562 522.796875 611.109375 521.488281 609.804688 C 520.183594 608.496094 518.945312 607.128906 517.773438 605.699219 C 516.601562 604.269531 515.5 602.789062 514.476562 601.25 C 513.449219 599.714844 512.5 598.132812 511.628906 596.5 C 510.757812 594.871094 509.96875 593.203125 509.261719 591.496094 C 508.554688 589.789062 507.933594 588.050781 507.398438 586.28125 C 506.859375 584.511719 506.414062 582.722656 506.050781 580.910156 C 505.691406 579.097656 505.421875 577.269531 505.238281 575.429688 C 505.058594 573.589844 504.96875 571.746094 504.96875 569.898438 C 504.96875 568.050781 505.058594 566.207031 505.238281 564.367188 C 505.421875 562.527344 505.691406 560.703125 506.050781 558.890625 C 506.414062 557.078125 506.859375 555.285156 507.398438 553.519531 C 507.933594 551.75 508.554688 550.011719 509.261719 548.304688 C 509.96875 546.597656 510.757812 544.925781 511.628906 543.296875 C 512.5 541.667969 513.449219 540.082031 514.476562 538.546875 C 515.5 537.011719 516.601562 535.527344 517.773438 534.097656 C 518.945312 532.671875 520.183594 531.300781 521.488281 529.996094 C 522.796875 528.6875 524.164062 527.449219 525.589844 526.277344 C 527.019531 525.105469 528.5 524.003906 530.039062 522.976562 C 531.574219 521.949219 533.15625 521 534.785156 520.128906 C 536.414062 519.257812 538.082031 518.46875 539.789062 517.761719 C 541.496094 517.054688 543.234375 516.433594 545 515.898438 C 546.769531 515.359375 548.558594 514.910156 550.371094 514.550781 C 552.183594 514.191406 554.007812 513.917969 555.847656 513.738281 C 557.683594 513.558594 559.527344 513.464844 561.375 513.464844 C 563.222656 513.464844 565.066406 513.558594 566.902344 513.738281 C 568.742188 513.917969 570.566406 514.191406 572.378906 514.550781 C 574.191406 514.910156 575.980469 515.359375 577.75 515.898438 C 579.515625 516.433594 581.253906 517.054688 582.960938 517.761719 C 584.667969 518.46875 586.335938 519.257812 587.964844 520.128906 C 589.59375 521 591.175781 521.949219 592.710938 522.976562 C 594.25 524.003906 595.730469 525.105469 597.160156 526.277344 C 598.585938 527.449219 599.953125 528.6875 601.261719 529.996094 C 602.566406 531.300781 603.804688 532.671875 604.976562 534.097656 C 606.148438 535.527344 607.25 537.011719 608.273438 538.546875 C 609.300781 540.082031 610.25 541.667969 611.121094 543.296875 C 611.992188 544.925781 612.78125 546.597656 613.488281 548.304688 C 614.195312 550.011719 614.816406 551.75 615.351562 553.519531 C 615.890625 555.285156 616.335938 557.078125 616.699219 558.890625 C 617.058594 560.703125 617.328125 562.527344 617.511719 564.367188 C 617.691406 566.207031 617.78125 568.050781 617.78125 569.898438 Z M 617.78125 569.898438 " fill-opacity="1" fill-rule="nonzero"/><path fill="#0080c7" d="M 622.707031 547.492188 C 626.195312 558.964844 635.109375 571.410156 648.484375 580.148438 C 661.785156 588.996094 676.742188 592.269531 688.640625 590.976562 C 700.648438 589.71875 709.636719 583.820312 713.121094 575.292969 C 713.804688 573.675781 714.453125 572.09375 715.136719 570.476562 C 715.386719 569.863281 715.640625 569.289062 715.890625 568.675781 C 715.960938 568.53125 716 568.390625 716.070312 568.246094 C 716.320312 567.667969 716.574219 567.058594 716.824219 566.445312 C 720.527344 557.597656 724.195312 548.785156 727.863281 539.9375 C 728.113281 539.328125 728.367188 538.75 728.617188 538.140625 C 728.6875 537.996094 728.726562 537.851562 728.796875 537.707031 C 729.046875 537.097656 729.300781 536.523438 729.550781 535.910156 C 733.148438 527.3125 736.742188 518.71875 740.300781 510.121094 C 740.554688 509.511719 740.804688 508.933594 741.054688 508.324219 C 741.128906 508.179688 741.164062 508.035156 741.234375 507.890625 C 741.488281 507.28125 741.738281 506.703125 741.992188 506.09375 C 742.027344 505.984375 742.097656 505.839844 742.132812 505.734375 C 745.695312 497.136719 745.046875 487.964844 742.277344 479.980469 C 739.4375 471.960938 734.441406 465.089844 727.285156 460.378906 C 720.960938 456.207031 713.699219 454.265625 706.21875 454.265625 C 705.285156 454.265625 704.351562 454.300781 703.378906 454.371094 C 694.96875 454.984375 686.304688 458.042969 679.796875 464.695312 C 679.222656 465.304688 678.644531 465.882812 678.070312 466.492188 C 677.640625 466.960938 677.207031 467.394531 676.777344 467.859375 C 676.667969 467.96875 676.5625 468.113281 676.417969 468.21875 C 675.984375 468.6875 675.554688 469.117188 675.121094 469.585938 C 668.652344 476.242188 662.214844 482.894531 655.746094 489.585938 C 655.3125 490.015625 654.882812 490.484375 654.449219 490.914062 C 654.34375 491.023438 654.234375 491.167969 654.089844 491.273438 C 653.660156 491.707031 653.230469 492.175781 652.796875 492.605469 C 646.074219 499.546875 639.351562 506.488281 632.628906 513.394531 C 632.199219 513.828125 631.765625 514.292969 631.335938 514.726562 C 631.226562 514.832031 631.082031 514.976562 630.976562 515.085938 C 630.542969 515.515625 630.113281 515.984375 629.679688 516.414062 C 628.925781 517.171875 628.207031 517.925781 627.453125 518.71875 C 620.980469 525.371094 619.148438 535.945312 622.707031 547.492188 Z M 622.707031 547.492188 " fill-opacity="1" fill-rule="nonzero"/><path fill="#276fb3" d="M 676.382812 468.253906 C 695.972656 486.09375 731.746094 503.933594 741.019531 508.394531 C 741.09375 508.25 741.128906 508.109375 741.199219 507.964844 C 741.453125 507.351562 741.703125 506.777344 741.953125 506.164062 C 732.609375 501.632812 697.304688 484.007812 678.070312 466.492188 C 677.640625 466.960938 677.207031 467.390625 676.777344 467.859375 C 676.597656 468.003906 676.488281 468.113281 676.382812 468.253906 Z M 676.382812 468.253906 " fill-opacity="1" fill-rule="nonzero"/><path fill="#276fb3" d="M 654.054688 491.273438 C 675.519531 510.839844 712.980469 530.40625 728.582031 538.140625 C 728.652344 537.996094 728.6875 537.851562 728.761719 537.707031 C 729.011719 537.097656 729.265625 536.523438 729.515625 535.910156 C 713.914062 528.175781 676.882812 508.789062 655.710938 489.511719 C 655.277344 489.945312 654.847656 490.410156 654.414062 490.84375 C 654.269531 491.058594 654.164062 491.167969 654.054688 491.273438 Z M 654.054688 491.273438 " fill-opacity="1" fill-rule="nonzero"/><path fill="#276fb3" d="M 630.941406 515.15625 C 655.207031 538.25 701.871094 561.878906 715.890625 568.675781 C 715.960938 568.53125 716 568.390625 716.070312 568.246094 C 716.320312 567.667969 716.574219 567.058594 716.824219 566.445312 C 702.769531 559.613281 656.574219 536.234375 632.628906 513.429688 C 632.199219 513.863281 631.765625 514.328125 631.335938 514.761719 C 631.191406 514.90625 631.046875 515.011719 630.941406 515.15625 Z M 630.941406 515.15625 " fill-opacity="1" fill-rule="nonzero"/><path fill="#42c6f3" d="M 675.085938 469.585938 C 694.714844 487.640625 731.242188 505.804688 740.265625 510.15625 C 740.515625 509.546875 740.769531 508.972656 741.019531 508.359375 C 741.09375 508.214844 741.128906 508.070312 741.199219 507.925781 C 732.070312 503.539062 696.011719 485.59375 676.742188 467.824219 C 676.632812 467.933594 676.523438 468.074219 676.382812 468.183594 C 675.949219 468.6875 675.519531 469.15625 675.085938 469.585938 Z M 675.085938 469.585938 " fill-opacity="0.31" fill-rule="nonzero"/><path fill="#42c6f3" d="M 652.761719 492.640625 C 674.261719 512.386719 712.261719 532.207031 727.863281 539.972656 C 728.113281 539.363281 728.367188 538.789062 728.617188 538.175781 C 728.6875 538.03125 728.726562 537.886719 728.796875 537.746094 C 713.230469 530.011719 675.625 510.375 654.453125 490.914062 C 654.34375 491.023438 654.234375 491.167969 654.089844 491.273438 C 653.625 491.742188 653.191406 492.175781 652.761719 492.640625 Z M 652.761719 492.640625 " fill-opacity="0.31" fill-rule="nonzero"/><path fill="#42c6f3" d="M 629.644531 516.488281 C 653.910156 539.792969 701.292969 563.714844 715.136719 570.4375 C 715.386719 569.828125 715.640625 569.25 715.890625 568.640625 C 715.960938 568.496094 716 568.351562 716.070312 568.207031 C 702.195312 561.445312 655.242188 537.746094 631.335938 514.726562 C 631.226562 514.832031 631.082031 514.976562 630.976562 515.085938 C 630.507812 515.589844 630.078125 516.054688 629.644531 516.488281 Z M 629.644531 516.488281 " fill-opacity="0.31" fill-rule="nonzero"/><path fill="#ffffff" d="M 553.859375 516.703125 C 553.859375 516.703125 598.332031 517.675781 610.050781 553.210938 C 610.050781 553.210938 592.292969 526.414062 551.523438 523.679688 Z M 553.859375 516.703125 " fill-opacity="0.16" fill-rule="nonzero"/><g clip-path="url(#9e81020f55)"><path fill="#d1d3d4" d="M 571.691406 594.035156 C 571.65625 594.859375 571.585938 595.722656 571.511719 596.585938 C 571.476562 597.089844 571.441406 597.558594 571.40625 598.0625 C 571.332031 598.890625 571.261719 599.753906 571.191406 600.578125 C 570.902344 603.203125 570.578125 605.867188 570.148438 608.492188 C 563.316406 650.753906 539.515625 685.859375 509.820312 710.746094 C 479.765625 735.566406 443.816406 750.167969 404.882812 750.238281 C 365.949219 750.167969 329.960938 735.566406 299.941406 710.746094 C 270.246094 685.859375 246.449219 650.753906 239.617188 608.492188 C 239.183594 605.902344 238.863281 603.347656 238.574219 600.757812 C 238.503906 599.894531 238.394531 599.070312 238.324219 598.242188 C 238.285156 597.773438 238.25 597.304688 238.214844 596.804688 C 238.144531 595.941406 238.105469 595.113281 238.035156 594.25 C 236.777344 571.949219 241.019531 550.046875 250.402344 530.046875 C 256.621094 516.777344 265.105469 504.367188 275.746094 493.21875 C 305.40625 461.78125 352.25 440.5625 404.882812 440.703125 C 457.550781 440.5625 504.355469 461.746094 534.050781 493.21875 C 546.382812 506.128906 555.839844 520.804688 562.203125 536.484375 C 569.535156 554.648438 572.808594 574.179688 571.691406 594.035156 Z M 571.691406 594.035156 " fill-opacity="1" fill-rule="nonzero"/></g><path fill="#ffffff" d="M 571.511719 596.585938 C 571.476562 597.089844 571.441406 597.558594 571.40625 598.0625 C 571.332031 598.890625 571.261719 599.753906 571.191406 600.578125 C 570.21875 600.292969 569.105469 600.003906 567.847656 599.679688 C 563.425781 598.566406 557.277344 597.378906 550.300781 597.019531 C 531.789062 596.011719 516.6875 600.976562 505.328125 611.730469 C 501.121094 615.722656 496.84375 620.722656 492.351562 626.007812 C 483.433594 636.4375 473.367188 648.273438 459.492188 657.585938 C 443.707031 668.160156 426.058594 673.449219 405.492188 673.628906 L 404.234375 673.628906 C 359.945312 673.160156 338.15625 648.414062 320.613281 628.453125 C 315.042969 622.125 309.792969 616.152344 304.507812 611.800781 C 289.695312 599.679688 271.46875 597.59375 258.816406 598.027344 C 250.113281 598.3125 242.78125 599.753906 238.539062 600.757812 C 238.464844 599.894531 238.359375 599.070312 238.285156 598.242188 C 238.25 597.773438 238.214844 597.304688 238.179688 596.804688 C 242.671875 595.722656 249.96875 594.355469 258.707031 594.105469 C 277.832031 593.492188 294.511719 598.566406 306.988281 608.78125 C 312.523438 613.3125 317.882812 619.425781 323.5625 625.863281 C 340.636719 645.324219 361.886719 669.492188 404.847656 669.707031 C 450.070312 669.457031 471.820312 643.957031 489.328125 623.453125 C 493.929688 618.09375 498.246094 612.988281 502.59375 608.886719 C 514.601562 597.484375 531.210938 592.054688 550.589844 593.097656 C 559.433594 593.566406 566.910156 595.292969 571.511719 596.585938 Z M 571.511719 596.585938 " fill-opacity="0.31" fill-rule="nonzero"/><path fill="#2992c4" d="M 652.148438 348.699219 C 677.964844 336.398438 690.582031 307.15625 682.996094 280.46875 L 579.746094 329.636719 C 595.671875 352.332031 626.300781 361 652.148438 348.699219 Z M 652.148438 348.699219 " fill-opacity="1" fill-rule="nonzero"/><path fill="#5fb4df" d="M 589.058594 216.054688 C 563.246094 228.355469 550.625 257.59375 558.210938 284.28125 L 661.460938 235.117188 C 645.5 212.421875 614.871094 203.753906 589.058594 216.054688 Z M 589.058594 216.054688 " fill-opacity="1" fill-rule="nonzero"/><path fill="#08abde" d="M 666.351562 243.53125 C 664.949219 240.546875 663.296875 237.777344 661.460938 235.152344 L 558.210938 284.320312 C 559.074219 287.375 560.222656 290.433594 561.625 293.417969 L 574.890625 321.292969 C 576.292969 324.277344 577.949219 327.046875 579.78125 329.671875 L 683.03125 280.507812 C 682.167969 277.449219 681.019531 274.390625 679.617188 271.40625 Z M 666.351562 243.53125 " fill-opacity="1" fill-rule="nonzero"/><path fill="#0080c7" d="M 682.996094 280.46875 C 682.132812 277.414062 680.984375 274.355469 679.582031 271.371094 L 666.316406 243.496094 C 664.914062 240.511719 663.257812 237.742188 661.425781 235.117188 C 645.5 212.421875 614.871094 203.753906 589.019531 216.054688 C 563.207031 228.355469 550.589844 257.59375 558.175781 284.28125 C 559.039062 287.339844 560.1875 290.398438 561.589844 293.382812 L 574.855469 321.257812 C 576.257812 324.242188 577.914062 327.011719 579.746094 329.636719 C 595.671875 352.332031 626.300781 361 652.148438 348.699219 C 677.964844 336.398438 690.546875 307.15625 682.996094 280.46875 Z M 682.996094 280.46875 " fill-opacity="1" fill-rule="nonzero"/><path fill="#bee6f3" d="M 655.746094 240.511719 C 657.613281 243.207031 659.304688 246.050781 660.707031 249 L 675.339844 279.785156 C 676.742188 282.738281 677.890625 285.828125 678.789062 288.996094 C 679.472656 291.476562 680.011719 293.957031 680.371094 296.511719 C 680.40625 291.546875 679.761719 286.585938 678.394531 281.765625 C 677.566406 278.921875 676.523438 276.117188 675.265625 273.421875 L 662 245.546875 C 660.742188 242.882812 659.234375 240.292969 657.507812 237.847656 C 647.546875 223.679688 631.191406 215.191406 613.753906 215.191406 C 611.957031 215.191406 610.195312 215.296875 608.433594 215.441406 C 627.34375 215.835938 644.925781 225.152344 655.746094 240.511719 Z M 655.746094 240.511719 " fill-opacity="0.16" fill-rule="nonzero"/><path fill="#2992c4" d="M 157.542969 348.699219 C 131.730469 336.398438 119.109375 307.15625 126.695312 280.46875 L 229.945312 329.636719 C 214.019531 352.332031 183.355469 361 157.542969 348.699219 Z M 157.542969 348.699219 " fill-opacity="1" fill-rule="nonzero"/><path fill="#5fb4df" d="M 220.636719 216.054688 C 246.449219 228.355469 259.066406 257.59375 251.480469 284.28125 L 148.230469 235.152344 C 164.15625 212.421875 194.824219 203.753906 220.636719 216.054688 Z M 220.636719 216.054688 " fill-opacity="1" fill-rule="nonzero"/><path fill="#08abde" d="M 143.339844 243.53125 C 144.742188 240.546875 146.398438 237.777344 148.230469 235.152344 L 251.480469 284.320312 C 250.617188 287.375 249.46875 290.433594 248.066406 293.417969 L 234.800781 321.292969 C 233.398438 324.277344 231.742188 327.046875 229.910156 329.671875 L 126.695312 280.46875 C 127.558594 277.414062 128.710938 274.355469 130.109375 271.371094 Z M 143.339844 243.53125 " fill-opacity="1" fill-rule="nonzero"/><path fill="#0080c7" d="M 220.636719 216.054688 C 194.824219 203.753906 164.15625 212.421875 148.230469 235.117188 C 146.398438 237.742188 144.742188 240.511719 143.339844 243.496094 L 130.074219 271.371094 C 128.671875 274.355469 127.523438 277.378906 126.660156 280.46875 C 119.109375 307.15625 131.691406 336.398438 157.503906 348.699219 C 183.316406 361 213.984375 352.332031 229.910156 329.636719 C 231.742188 327.011719 233.398438 324.242188 234.800781 321.257812 L 248.066406 293.382812 C 249.46875 290.398438 250.617188 287.375 251.480469 284.28125 C 259.066406 257.59375 246.449219 228.355469 220.636719 216.054688 Z M 220.636719 216.054688 " fill-opacity="1" fill-rule="nonzero"/><path fill="#bee6f3" d="M 153.945312 240.511719 C 152.078125 243.207031 150.386719 246.050781 148.984375 249 L 134.351562 279.785156 C 132.953125 282.738281 131.800781 285.828125 130.902344 288.996094 C 130.21875 291.476562 129.679688 293.957031 129.320312 296.511719 C 129.285156 291.546875 129.929688 286.585938 131.296875 281.765625 C 132.125 278.921875 133.167969 276.117188 134.425781 273.421875 L 147.691406 245.546875 C 148.949219 242.882812 150.460938 240.296875 152.183594 237.847656 C 162.144531 223.679688 178.5 215.191406 195.9375 215.191406 C 197.734375 215.191406 199.496094 215.296875 201.257812 215.441406 C 182.347656 215.835938 164.730469 225.152344 153.945312 240.511719 Z M 153.945312 240.511719 " fill-opacity="0.16" fill-rule="nonzero"/><path fill="#534d4e" d="M 402.472656 68.695312 L 407.21875 68.695312 L 407.21875 142.175781 L 402.472656 142.175781 Z M 402.472656 68.695312 " fill-opacity="1" fill-rule="nonzero"/><path fill="#c9cacc" d="M 660.527344 455.558594 C 637.304688 498.539062 593.730469 509.472656 548.613281 516.523438 C 502.667969 522.496094 455.175781 524.617188 404.847656 524.582031 C 354.515625 524.617188 307.023438 522.496094 261.078125 516.523438 C 215.960938 509.4375 172.390625 498.539062 149.164062 455.558594 C 138.234375 434.664062 133.597656 407.578125 137.015625 375.855469 C 137.121094 374.777344 137.265625 373.660156 137.410156 372.582031 C 141.472656 339.636719 154.234375 301.726562 176.453125 265.328125 C 198.5625 229 230.125 194.183594 269.421875 168.863281 C 308.570312 143.507812 355.484375 127.679688 404.882812 127.859375 C 454.277344 127.679688 501.195312 143.507812 540.34375 168.863281 C 579.636719 194.148438 611.203125 229 633.3125 265.328125 C 655.53125 301.726562 668.292969 339.636719 672.355469 372.582031 C 672.5 373.660156 672.605469 374.777344 672.75 375.855469 C 676.09375 407.578125 671.457031 434.664062 660.527344 455.558594 Z M 660.527344 455.558594 " fill-opacity="1" fill-rule="nonzero"/><path fill="#dedfe0" d="M 672.679688 375.820312 C 670.808594 391.214844 666.636719 404.917969 660.527344 416.644531 C 637.304688 459.625 593.730469 470.558594 548.613281 477.605469 C 502.667969 483.578125 455.175781 485.699219 404.847656 485.664062 C 354.515625 485.699219 307.023438 483.578125 261.078125 477.605469 C 215.960938 470.558594 172.390625 459.625 149.164062 416.644531 C 143.015625 404.917969 138.847656 391.214844 137.015625 375.820312 C 137.121094 374.742188 137.265625 373.660156 137.410156 372.546875 C 141.4375 339.996094 153.910156 302.625 175.589844 266.660156 C 175.660156 266.550781 175.695312 266.441406 175.769531 266.335938 C 175.984375 265.976562 176.199219 265.617188 176.414062 265.257812 C 176.773438 264.679688 177.097656 264.140625 177.457031 263.566406 C 177.53125 263.457031 177.566406 263.386719 177.636719 263.277344 C 177.710938 263.171875 177.746094 263.097656 177.816406 262.992188 C 178.394531 262.089844 178.96875 261.15625 179.542969 260.257812 C 179.613281 260.148438 179.6875 260.039062 179.722656 259.96875 C 201.617188 225.585938 231.996094 192.890625 269.382812 168.828125 C 308.535156 143.472656 355.449219 127.644531 404.847656 127.824219 C 454.242188 127.644531 501.15625 143.472656 540.308594 168.828125 C 577.15625 192.566406 607.175781 224.648438 629 258.496094 C 629.105469 258.675781 629.214844 258.816406 629.320312 258.996094 C 629.859375 259.824219 630.398438 260.6875 630.9375 261.515625 C 631.011719 261.625 631.046875 261.695312 631.121094 261.804688 C 631.15625 261.875 631.226562 261.949219 631.261719 262.019531 C 631.335938 262.128906 631.371094 262.199219 631.441406 262.308594 C 631.980469 263.171875 632.484375 263.996094 633.023438 264.859375 C 633.097656 265.003906 633.203125 265.148438 633.277344 265.292969 C 633.3125 265.328125 633.3125 265.363281 633.347656 265.363281 C 655.53125 301.726562 668.257812 339.601562 672.320312 372.511719 C 672.425781 373.660156 672.570312 374.742188 672.679688 375.820312 Z M 672.679688 375.820312 " fill-opacity="1" fill-rule="nonzero"/><g clip-path="url(#9058e53b5d)"><path fill="#0080c7" d="M 431.808594 86.785156 C 431.808594 87.671875 431.765625 88.550781 431.679688 89.429688 C 431.59375 90.308594 431.464844 91.183594 431.289062 92.050781 C 431.117188 92.914062 430.902344 93.773438 430.648438 94.617188 C 430.390625 95.460938 430.09375 96.292969 429.757812 97.109375 C 429.417969 97.925781 429.042969 98.722656 428.625 99.503906 C 428.207031 100.28125 427.753906 101.039062 427.265625 101.773438 C 426.773438 102.507812 426.25 103.214844 425.6875 103.898438 C 425.128906 104.582031 424.535156 105.234375 423.910156 105.859375 C 423.289062 106.484375 422.632812 107.078125 421.949219 107.640625 C 421.269531 108.199219 420.558594 108.726562 419.824219 109.214844 C 419.089844 109.707031 418.335938 110.160156 417.554688 110.578125 C 416.777344 110.992188 415.980469 111.371094 415.164062 111.707031 C 414.347656 112.046875 413.519531 112.34375 412.671875 112.601562 C 411.828125 112.855469 410.972656 113.070312 410.105469 113.242188 C 409.238281 113.414062 408.367188 113.546875 407.488281 113.632812 C 406.609375 113.71875 405.730469 113.761719 404.847656 113.761719 C 403.960938 113.761719 403.082031 113.71875 402.203125 113.632812 C 401.324219 113.546875 400.453125 113.414062 399.585938 113.242188 C 398.71875 113.070312 397.863281 112.855469 397.019531 112.601562 C 396.175781 112.34375 395.34375 112.046875 394.527344 111.707031 C 393.710938 111.371094 392.914062 110.992188 392.136719 110.578125 C 391.355469 110.160156 390.601562 109.707031 389.867188 109.214844 C 389.132812 108.726562 388.421875 108.199219 387.742188 107.640625 C 387.058594 107.078125 386.40625 106.484375 385.78125 105.859375 C 385.15625 105.234375 384.5625 104.582031 384.003906 103.898438 C 383.441406 103.214844 382.917969 102.507812 382.425781 101.773438 C 381.9375 101.039062 381.484375 100.28125 381.066406 99.503906 C 380.652344 98.722656 380.273438 97.925781 379.933594 97.109375 C 379.597656 96.292969 379.300781 95.460938 379.042969 94.617188 C 378.789062 93.773438 378.574219 92.914062 378.402344 92.050781 C 378.230469 91.183594 378.097656 90.308594 378.011719 89.429688 C 377.925781 88.550781 377.882812 87.671875 377.882812 86.785156 C 377.882812 85.902344 377.925781 85.023438 378.011719 84.140625 C 378.097656 83.261719 378.230469 82.390625 378.402344 81.523438 C 378.574219 80.65625 378.789062 79.800781 379.042969 78.957031 C 379.300781 78.109375 379.597656 77.28125 379.933594 76.464844 C 380.273438 75.648438 380.652344 74.847656 381.066406 74.070312 C 381.484375 73.292969 381.9375 72.535156 382.425781 71.800781 C 382.917969 71.066406 383.441406 70.355469 384.003906 69.671875 C 384.5625 68.992188 385.15625 68.335938 385.78125 67.710938 C 386.40625 67.085938 387.058594 66.496094 387.742188 65.933594 C 388.421875 65.375 389.132812 64.847656 389.867188 64.355469 C 390.601562 63.867188 391.355469 63.414062 392.136719 62.996094 C 392.914062 62.578125 393.710938 62.203125 394.527344 61.863281 C 395.34375 61.527344 396.175781 61.230469 397.019531 60.972656 C 397.863281 60.714844 398.71875 60.5 399.585938 60.328125 C 400.453125 60.15625 401.324219 60.027344 402.203125 59.941406 C 403.082031 59.855469 403.960938 59.8125 404.847656 59.8125 C 405.730469 59.8125 406.609375 59.855469 407.488281 59.941406 C 408.367188 60.027344 409.238281 60.15625 410.105469 60.328125 C 410.972656 60.5 411.828125 60.714844 412.671875 60.972656 C 413.519531 61.230469 414.347656 61.527344 415.164062 61.863281 C 415.980469 62.203125 416.777344 62.578125 417.554688 62.996094 C 418.335938 63.414062 419.089844 63.867188 419.824219 64.355469 C 420.558594 64.847656 421.269531 65.375 421.949219 65.933594 C 422.632812 66.496094 423.289062 67.085938 423.910156 67.710938 C 424.535156 68.335938 425.128906 68.992188 425.6875 69.671875 C 426.25 70.355469 426.773438 71.066406 427.265625 71.800781 C 427.753906 72.535156 428.207031 73.292969 428.625 74.070312 C 429.042969 74.847656 429.417969 75.648438 429.757812 76.464844 C 430.09375 77.28125 430.390625 78.109375 430.648438 78.957031 C 430.902344 79.800781 431.117188 80.65625 431.289062 81.523438 C 431.464844 82.390625 431.59375 83.261719 431.679688 84.140625 C 431.765625 85.023438 431.808594 85.902344 431.808594 86.785156 Z M 431.808594 86.785156 " fill-opacity="1" fill-rule="nonzero"/></g><path fill="#9d9fa2" d="M 212.726562 280.21875 L 210.710938 283.597656 L 210.390625 283.382812 L 177.492188 263.601562 C 177.566406 263.492188 177.601562 263.421875 177.675781 263.3125 C 177.746094 263.207031 177.78125 263.132812 177.855469 263.027344 C 178.429688 262.128906 179.003906 261.191406 179.578125 260.292969 Z M 212.726562 280.21875 " fill-opacity="1" fill-rule="nonzero"/><path fill="#ffffff" d="M 210.53125 283.058594 L 210.351562 283.347656 L 208.519531 286.441406 L 175.589844 266.660156 C 175.660156 266.550781 175.734375 266.441406 175.769531 266.335938 C 175.984375 265.976562 176.199219 265.617188 176.414062 265.257812 C 176.773438 264.679688 177.097656 264.140625 177.457031 263.566406 C 177.53125 263.457031 177.566406 263.386719 177.636719 263.277344 Z M 210.53125 283.058594 " fill-opacity="1" fill-rule="nonzero"/><path fill="#9d9fa2" d="M 631.121094 261.839844 L 598.117188 281.691406 L 597.792969 281.910156 L 595.78125 278.527344 L 629.035156 258.496094 C 629.140625 258.675781 629.25 258.816406 629.359375 258.996094 C 629.898438 259.824219 630.4375 260.6875 630.976562 261.515625 C 630.976562 261.625 631.046875 261.730469 631.121094 261.839844 Z M 631.121094 261.839844 " fill-opacity="1" fill-rule="nonzero"/><path fill="#ffffff" d="M 632.988281 264.898438 L 599.914062 284.785156 L 598.082031 281.691406 L 597.902344 281.40625 L 630.902344 261.550781 C 630.976562 261.660156 631.011719 261.730469 631.082031 261.839844 C 631.121094 261.910156 631.191406 261.984375 631.226562 262.054688 C 631.300781 262.164062 631.335938 262.234375 631.40625 262.34375 C 631.945312 263.171875 632.484375 264.035156 632.988281 264.898438 Z M 632.988281 264.898438 " fill-opacity="1" fill-rule="nonzero"/><g clip-path="url(#537bf93dd6)"><g clip-path="url(#db5f819f83)"><path fill="url(#8a40dd372e)" d="M 325.394531 563.605469 L 325.394531 607.054688 L 484.296875 607.054688 L 484.296875 563.605469 Z M 325.394531 563.605469 " fill-rule="nonzero"/></g></g><path fill="#e9e9ea" d="M 347.109375 610.253906 C 333.375 610.253906 322.160156 599.070312 322.160156 585.292969 C 322.160156 571.554688 333.339844 560.332031 347.109375 560.332031 L 462.582031 560.332031 C 476.316406 560.332031 487.53125 571.519531 487.53125 585.292969 C 487.53125 599.03125 476.351562 610.253906 462.582031 610.253906 Z M 347.109375 610.253906 " fill-opacity="1" fill-rule="nonzero"/><path fill="#0080c7" d="M 462.582031 607.054688 L 347.109375 607.054688 C 335.101562 607.054688 325.394531 597.304688 325.394531 585.328125 C 325.394531 573.316406 335.136719 563.605469 347.109375 563.605469 L 462.582031 563.605469 C 474.589844 563.605469 484.296875 573.351562 484.296875 585.328125 C 484.296875 597.304688 474.554688 607.054688 462.582031 607.054688 Z M 462.582031 607.054688 " fill-opacity="1" fill-rule="nonzero"/><path fill="#ffffff" d="M 343.765625 583.351562 C 343.765625 577.992188 347.683594 574.070312 353.042969 574.070312 C 357.605469 574.070312 360.769531 576.734375 361.707031 580.4375 L 359.332031 580.4375 C 358.578125 577.957031 356.3125 576.230469 353.078125 576.230469 C 349.015625 576.230469 346.066406 579.179688 346.066406 583.351562 C 346.066406 587.488281 349.015625 590.472656 353.078125 590.472656 C 356.382812 590.472656 358.863281 588.53125 359.511719 586.011719 L 361.886719 586.011719 C 361.09375 589.71875 357.714844 592.628906 353.042969 592.628906 C 347.71875 592.628906 343.765625 588.710938 343.765625 583.351562 Z M 343.765625 583.351562 " fill-opacity="1" fill-rule="nonzero"/><path fill="#ffffff" d="M 379.789062 574.503906 L 379.789062 592.199219 L 377.453125 592.199219 L 377.453125 584.179688 L 367.167969 584.179688 L 367.167969 592.199219 L 364.832031 592.199219 L 364.832031 574.503906 L 367.167969 574.503906 L 367.167969 582.09375 L 377.453125 582.09375 L 377.453125 574.503906 Z M 379.789062 574.503906 " fill-opacity="1" fill-rule="nonzero"/><path fill="#ffffff" d="M 394.851562 587.847656 L 386.367188 587.847656 L 384.605469 592.234375 L 382.160156 592.234375 L 389.460938 574.539062 L 391.902344 574.539062 L 399.164062 592.234375 L 396.613281 592.234375 Z M 394.023438 585.796875 L 390.609375 577.238281 L 387.160156 585.796875 Z M 394.023438 585.796875 " fill-opacity="1" fill-rule="nonzero"/><path fill="#ffffff" d="M 406.246094 576.589844 L 406.246094 592.234375 L 403.910156 592.234375 L 403.910156 576.589844 L 397.546875 576.589844 L 397.546875 574.503906 L 412.574219 574.503906 L 412.574219 576.589844 Z M 406.246094 576.589844 " fill-opacity="1" fill-rule="nonzero"/><path fill="#ffffff" d="M 422.570312 574.503906 C 426.488281 574.503906 428.679688 576.375 428.679688 579.394531 C 428.679688 581.050781 427.53125 582.667969 425.949219 583.027344 C 427.960938 583.421875 429.542969 585.003906 429.542969 587.199219 C 429.542969 590.257812 427.207031 592.199219 423.253906 592.199219 L 415.378906 592.199219 L 415.378906 574.503906 Z M 426.34375 579.429688 C 426.34375 577.558594 424.941406 576.515625 422.496094 576.515625 L 417.644531 576.515625 L 417.644531 582.308594 L 422.496094 582.308594 C 424.941406 582.308594 426.34375 581.300781 426.34375 579.429688 Z M 427.171875 587.234375 C 427.171875 585.292969 425.625 584.25 423.144531 584.25 L 417.644531 584.25 L 417.644531 590.222656 L 423.144531 590.222656 C 425.625 590.222656 427.171875 589.179688 427.171875 587.234375 Z M 427.171875 587.234375 " fill-opacity="1" fill-rule="nonzero"/><path fill="#ffffff" d="M 431.738281 583.351562 C 431.738281 577.992188 435.691406 574.070312 441.046875 574.070312 C 446.40625 574.070312 450.394531 577.992188 450.394531 583.351562 C 450.394531 588.710938 446.441406 592.628906 441.085938 592.628906 C 435.726562 592.628906 431.738281 588.710938 431.738281 583.351562 Z M 448.09375 583.351562 C 448.09375 579.179688 445.109375 576.195312 441.085938 576.195312 C 437.058594 576.195312 434.074219 579.144531 434.074219 583.351562 C 434.074219 587.523438 437.058594 590.507812 441.085938 590.507812 C 445.109375 590.507812 448.09375 587.523438 448.09375 583.351562 Z M 448.09375 583.351562 " fill-opacity="1" fill-rule="nonzero"/><path fill="#ffffff" d="M 459.851562 576.589844 L 459.851562 592.234375 L 457.511719 592.234375 L 457.511719 576.589844 L 451.148438 576.589844 L 451.148438 574.503906 L 466.179688 574.503906 L 466.179688 576.589844 Z M 459.851562 576.589844 " fill-opacity="1" fill-rule="nonzero"/><path fill="#9d9fa2" d="M 571.691406 594.035156 C 571.65625 594.859375 571.585938 595.722656 571.511719 596.585938 C 571.476562 597.089844 571.441406 597.558594 571.40625 598.0625 C 567.128906 596.804688 559.398438 594.898438 550.265625 594.429688 C 531.75 593.421875 516.652344 598.386719 505.292969 609.140625 C 501.085938 613.132812 496.84375 618.132812 492.3125 623.417969 C 483.398438 633.847656 473.332031 645.683594 459.453125 654.996094 C 443.671875 665.574219 426.019531 670.859375 405.457031 671.039062 L 404.199219 671.039062 C 359.90625 670.570312 338.121094 645.828125 320.578125 625.863281 C 315.003906 619.535156 309.757812 613.5625 304.472656 609.210938 C 289.660156 597.089844 271.433594 595.003906 258.777344 595.4375 C 249.898438 595.722656 242.492188 597.199219 238.25 598.242188 C 238.214844 597.773438 238.179688 597.304688 238.144531 596.804688 C 238.070312 595.941406 238.035156 595.113281 237.964844 594.25 C 242.457031 593.171875 249.828125 591.765625 258.632812 591.515625 C 277.761719 590.902344 294.441406 595.976562 306.917969 606.191406 C 312.453125 610.722656 317.808594 616.835938 323.488281 623.273438 C 340.566406 642.734375 361.8125 666.902344 404.773438 667.117188 C 450 666.867188 471.75 641.367188 489.257812 620.863281 C 493.859375 615.507812 498.171875 610.398438 502.523438 606.296875 C 514.53125 594.898438 531.140625 589.464844 550.519531 590.507812 C 559.542969 590.976562 567.089844 592.738281 571.691406 594.035156 Z M 571.691406 594.035156 " fill-opacity="1" fill-rule="nonzero"/><path fill="#929497" d="M 620.980469 372.65625 C 613.933594 418.046875 576.222656 439.949219 532.578125 441.207031 C 510.9375 442.144531 487.75 438.90625 466.359375 435.488281 C 444.714844 432.074219 424.871094 428.476562 404.847656 428.441406 C 384.785156 428.441406 364.941406 432.035156 343.335938 435.488281 C 321.945312 438.90625 298.753906 442.144531 277.113281 441.207031 C 233.46875 439.949219 195.757812 418.046875 188.710938 372.65625 C 185.4375 351.183594 189.070312 323.882812 201.1875 299.210938 C 213.085938 274.390625 233.46875 252.199219 258.417969 237.34375 C 282.902344 222.347656 311.699219 215.191406 336.613281 212.5625 C 362.027344 209.832031 383.5625 211.628906 404.847656 211.699219 C 426.128906 211.628906 447.664062 209.832031 473.082031 212.5625 C 497.992188 215.191406 526.789062 222.347656 551.273438 237.34375 C 576.222656 252.199219 596.605469 274.390625 608.507812 299.210938 C 620.621094 323.882812 624.253906 351.183594 620.980469 372.65625 Z M 620.980469 372.65625 " fill-opacity="1" fill-rule="nonzero"/><path fill="#00447b" d="M 284.878906 436.605469 C 282.289062 436.605469 279.773438 436.570312 277.328125 436.460938 L 277.257812 436.460938 C 255.578125 435.847656 236.453125 430.023438 221.964844 419.628906 C 206.183594 408.296875 196.582031 392.257812 193.421875 371.933594 C 190.039062 349.921875 194.570312 323.523438 205.464844 301.332031 C 217.113281 277.054688 236.777344 255.796875 260.828125 241.445312 L 260.863281 241.410156 C 287.070312 225.332031 316.765625 219.433594 337.078125 217.3125 C 346.5 216.304688 356.097656 215.835938 367.347656 215.835938 C 374.144531 215.835938 380.832031 216.015625 387.265625 216.160156 C 393.304688 216.304688 398.984375 216.449219 404.808594 216.484375 C 410.671875 216.449219 416.351562 216.304688 422.390625 216.160156 C 428.859375 215.980469 435.511719 215.835938 442.304688 215.835938 C 453.558594 215.835938 463.15625 216.304688 472.578125 217.3125 C 492.890625 219.433594 522.585938 225.367188 548.792969 241.410156 L 548.828125 241.445312 C 572.914062 255.796875 592.582031 277.054688 604.191406 301.296875 C 615.121094 323.523438 619.613281 349.921875 616.273438 371.933594 C 613.109375 392.257812 603.507812 408.296875 587.726562 419.628906 C 573.238281 430.023438 554.113281 435.847656 532.433594 436.460938 L 532.363281 436.460938 C 529.917969 436.570312 527.367188 436.605469 524.8125 436.605469 C 505.292969 436.605469 484.800781 433.582031 467.113281 430.777344 C 464.703125 430.382812 462.332031 430.023438 459.957031 429.625 C 440.976562 426.570312 423.035156 423.691406 404.847656 423.691406 C 386.65625 423.691406 368.714844 426.570312 349.734375 429.625 C 347.359375 430.023438 344.988281 430.382812 342.578125 430.777344 C 324.890625 433.582031 304.398438 436.605469 284.878906 436.605469 Z M 284.878906 436.605469 " fill-opacity="1" fill-rule="nonzero"/><path fill="#10bef0" d="M 404.847656 376.035156 C 389.890625 376.035156 375.832031 369.417969 366.308594 357.90625 C 365.226562 356.578125 365.40625 354.636719 366.703125 353.554688 C 368.03125 352.476562 369.972656 352.65625 371.050781 353.953125 C 379.394531 364.058594 391.722656 369.847656 404.808594 369.847656 C 417.894531 369.847656 430.226562 364.058594 438.566406 353.953125 C 439.644531 352.621094 441.625 352.441406 442.917969 353.554688 C 444.246094 354.636719 444.425781 356.613281 443.3125 357.90625 C 433.859375 369.417969 419.800781 376.035156 404.847656 376.035156 Z M 404.847656 376.035156 " fill-opacity="1" fill-rule="nonzero"/><path fill="#10bef0" d="M 515.035156 308.992188 C 515.035156 309.625 515.003906 310.253906 514.941406 310.882812 C 514.878906 311.511719 514.789062 312.132812 514.664062 312.753906 C 514.542969 313.371094 514.386719 313.984375 514.203125 314.589844 C 514.023438 315.191406 513.808594 315.785156 513.566406 316.371094 C 513.328125 316.953125 513.058594 317.523438 512.757812 318.082031 C 512.460938 318.636719 512.136719 319.179688 511.785156 319.703125 C 511.4375 320.226562 511.0625 320.734375 510.660156 321.222656 C 510.261719 321.710938 509.835938 322.179688 509.390625 322.625 C 508.945312 323.070312 508.476562 323.496094 507.988281 323.894531 C 507.5 324.296875 506.996094 324.671875 506.46875 325.023438 C 505.945312 325.371094 505.40625 325.695312 504.847656 325.996094 C 504.292969 326.292969 503.722656 326.5625 503.140625 326.804688 C 502.554688 327.046875 501.960938 327.257812 501.359375 327.441406 C 500.753906 327.625 500.144531 327.777344 499.523438 327.902344 C 498.90625 328.023438 498.28125 328.117188 497.652344 328.179688 C 497.027344 328.238281 496.394531 328.269531 495.765625 328.269531 C 495.132812 328.269531 494.503906 328.238281 493.875 328.179688 C 493.25 328.117188 492.625 328.023438 492.003906 327.902344 C 491.386719 327.777344 490.773438 327.625 490.171875 327.441406 C 489.566406 327.257812 488.972656 327.046875 488.390625 326.804688 C 487.808594 326.5625 487.238281 326.292969 486.679688 325.996094 C 486.125 325.695312 485.585938 325.371094 485.058594 325.023438 C 484.535156 324.671875 484.027344 324.296875 483.539062 323.894531 C 483.054688 323.496094 482.585938 323.070312 482.140625 322.625 C 481.691406 322.179688 481.269531 321.710938 480.871094 321.222656 C 480.46875 320.734375 480.09375 320.226562 479.742188 319.703125 C 479.390625 319.179688 479.070312 318.636719 478.769531 318.082031 C 478.472656 317.523438 478.203125 316.953125 477.960938 316.371094 C 477.722656 315.785156 477.507812 315.191406 477.324219 314.589844 C 477.140625 313.984375 476.988281 313.371094 476.867188 312.753906 C 476.742188 312.132812 476.648438 311.511719 476.589844 310.882812 C 476.527344 310.253906 476.496094 309.625 476.496094 308.992188 C 476.496094 308.359375 476.527344 307.730469 476.589844 307.101562 C 476.648438 306.472656 476.742188 305.851562 476.867188 305.230469 C 476.988281 304.613281 477.140625 304 477.324219 303.394531 C 477.507812 302.792969 477.722656 302.199219 477.960938 301.613281 C 478.203125 301.03125 478.472656 300.460938 478.769531 299.90625 C 479.070312 299.347656 479.390625 298.808594 479.742188 298.28125 C 480.09375 297.757812 480.46875 297.25 480.871094 296.761719 C 481.269531 296.273438 481.691406 295.808594 482.140625 295.359375 C 482.585938 294.914062 483.050781 294.492188 483.539062 294.089844 C 484.027344 293.691406 484.535156 293.3125 485.058594 292.964844 C 485.585938 292.613281 486.125 292.289062 486.679688 291.992188 C 487.238281 291.691406 487.808594 291.421875 488.390625 291.179688 C 488.972656 290.941406 489.566406 290.726562 490.171875 290.542969 C 490.773438 290.359375 491.386719 290.207031 492.003906 290.085938 C 492.625 289.960938 493.25 289.867188 493.875 289.808594 C 494.503906 289.746094 495.132812 289.714844 495.765625 289.714844 C 496.394531 289.714844 497.027344 289.746094 497.652344 289.808594 C 498.28125 289.867188 498.90625 289.960938 499.523438 290.085938 C 500.144531 290.207031 500.753906 290.359375 501.359375 290.542969 C 501.960938 290.726562 502.554688 290.941406 503.140625 291.179688 C 503.722656 291.421875 504.292969 291.691406 504.847656 291.992188 C 505.40625 292.289062 505.945312 292.613281 506.46875 292.964844 C 506.996094 293.3125 507.5 293.691406 507.988281 294.089844 C 508.476562 294.492188 508.945312 294.914062 509.390625 295.359375 C 509.835938 295.808594 510.261719 296.273438 510.660156 296.761719 C 511.0625 297.25 511.4375 297.757812 511.785156 298.28125 C 512.136719 298.808594 512.460938 299.347656 512.757812 299.90625 C 513.058594 300.460938 513.328125 301.03125 513.566406 301.613281 C 513.808594 302.199219 514.023438 302.792969 514.203125 303.394531 C 514.386719 304 514.542969 304.613281 514.664062 305.230469 C 514.789062 305.851562 514.878906 306.472656 514.941406 307.101562 C 515.003906 307.730469 515.035156 308.359375 515.035156 308.992188 Z M 515.035156 308.992188 " fill-opacity="1" fill-rule="nonzero"/><path fill="#10bef0" d="M 333.195312 308.992188 C 333.195312 309.625 333.164062 310.253906 333.105469 310.882812 C 333.042969 311.511719 332.949219 312.132812 332.824219 312.753906 C 332.703125 313.371094 332.550781 313.984375 332.367188 314.589844 C 332.183594 315.191406 331.972656 315.785156 331.730469 316.371094 C 331.488281 316.953125 331.21875 317.523438 330.921875 318.082031 C 330.625 318.636719 330.300781 319.179688 329.949219 319.703125 C 329.597656 320.226562 329.222656 320.734375 328.824219 321.222656 C 328.421875 321.710938 328 322.179688 327.550781 322.625 C 327.105469 323.070312 326.640625 323.496094 326.152344 323.894531 C 325.664062 324.296875 325.15625 324.671875 324.632812 325.023438 C 324.109375 325.371094 323.566406 325.695312 323.011719 325.996094 C 322.453125 326.292969 321.882812 326.5625 321.300781 326.804688 C 320.71875 327.046875 320.125 327.257812 319.519531 327.441406 C 318.917969 327.625 318.304688 327.777344 317.6875 327.902344 C 317.066406 328.023438 316.445312 328.117188 315.816406 328.179688 C 315.1875 328.238281 314.558594 328.269531 313.925781 328.269531 C 313.296875 328.269531 312.667969 328.238281 312.039062 328.179688 C 311.410156 328.117188 310.785156 328.023438 310.167969 327.902344 C 309.546875 327.777344 308.9375 327.625 308.332031 327.441406 C 307.730469 327.257812 307.136719 327.046875 306.550781 326.804688 C 305.96875 326.5625 305.398438 326.292969 304.84375 325.996094 C 304.285156 325.695312 303.746094 325.371094 303.222656 325.023438 C 302.695312 324.671875 302.191406 324.296875 301.703125 323.894531 C 301.214844 323.496094 300.746094 323.070312 300.300781 322.625 C 299.855469 322.179688 299.429688 321.710938 299.03125 321.222656 C 298.628906 320.734375 298.253906 320.226562 297.90625 319.703125 C 297.554688 319.179688 297.230469 318.636719 296.933594 318.082031 C 296.636719 317.523438 296.367188 316.953125 296.125 316.371094 C 295.882812 315.785156 295.671875 315.191406 295.488281 314.589844 C 295.304688 313.984375 295.152344 313.371094 295.027344 312.753906 C 294.90625 312.132812 294.8125 311.511719 294.75 310.882812 C 294.6875 310.253906 294.65625 309.625 294.65625 308.992188 C 294.65625 308.359375 294.6875 307.730469 294.75 307.101562 C 294.8125 306.472656 294.90625 305.851562 295.027344 305.230469 C 295.152344 304.613281 295.304688 304 295.488281 303.394531 C 295.671875 302.792969 295.882812 302.199219 296.125 301.613281 C 296.367188 301.03125 296.636719 300.460938 296.933594 299.90625 C 297.230469 299.347656 297.554688 298.808594 297.90625 298.28125 C 298.253906 297.757812 298.632812 297.25 299.03125 296.761719 C 299.429688 296.273438 299.855469 295.808594 300.300781 295.359375 C 300.746094 294.914062 301.214844 294.492188 301.703125 294.089844 C 302.191406 293.691406 302.695312 293.3125 303.222656 292.964844 C 303.746094 292.613281 304.285156 292.289062 304.84375 291.992188 C 305.398438 291.691406 305.96875 291.421875 306.550781 291.179688 C 307.136719 290.941406 307.730469 290.726562 308.332031 290.542969 C 308.9375 290.359375 309.546875 290.207031 310.167969 290.085938 C 310.785156 289.960938 311.410156 289.867188 312.039062 289.808594 C 312.667969 289.746094 313.296875 289.714844 313.925781 289.714844 C 314.558594 289.714844 315.1875 289.746094 315.816406 289.808594 C 316.445312 289.867188 317.066406 289.960938 317.6875 290.085938 C 318.304688 290.207031 318.917969 290.359375 319.519531 290.542969 C 320.125 290.726562 320.71875 290.941406 321.300781 291.179688 C 321.882812 291.421875 322.453125 291.691406 323.011719 291.992188 C 323.566406 292.289062 324.109375 292.613281 324.632812 292.964844 C 325.15625 293.3125 325.664062 293.691406 326.152344 294.089844 C 326.640625 294.492188 327.105469 294.914062 327.550781 295.359375 C 328 295.808594 328.421875 296.273438 328.824219 296.761719 C 329.222656 297.25 329.597656 297.757812 329.949219 298.28125 C 330.300781 298.808594 330.625 299.347656 330.921875 299.90625 C 331.21875 300.460938 331.488281 301.03125 331.730469 301.613281 C 331.972656 302.199219 332.183594 302.792969 332.367188 303.394531 C 332.550781 304 332.703125 304.613281 332.824219 305.230469 C 332.949219 305.851562 333.042969 306.472656 333.105469 307.101562 C 333.164062 307.730469 333.195312 308.359375 333.195312 308.992188 Z M 333.195312 308.992188 " fill-opacity="1" fill-rule="nonzero"/></svg>